<svg width="3027" height="3027" viewBox="0 0 3027 3027" fill="none" xmlns="http://www.w3.org/2000/svg">
<g filter="url(#filter0_f_110_399)">
<path d="M651.714 2144.01L735.158 2245.87L704.188 2271.27L647.091 2201.47L610.102 2231.78L659.567 2292.26L628.596 2317.65L579.132 2257.17L515.136 2309.58L488.862 2277.5L651.861 2144.01H651.714Z" fill="#F47231" fill-opacity="0.6"/>
<path d="M761.218 2272.15L869.468 2366.68L843.121 2396.84L766.135 2329.61L736.559 2363.45L804.665 2422.97L778.318 2453.13L710.212 2393.61L680.269 2427.88L760.264 2497.75L733.917 2527.91L622.658 2430.75L761.218 2272.08V2272.15ZM889.87 2314.94L832.553 2316.18L814.205 2300.18L856.404 2285.8L889.797 2315.01L889.87 2314.94Z" fill="#F47231" fill-opacity="0.6"/>
<path d="M956.287 2676.09L889.576 2471.48L896.841 2483.59L833.506 2595.73L797.031 2574.81L906.015 2384.88L907.483 2385.76L971.479 2588.17L965.534 2580.17L1030.19 2465.83L1066.44 2486.59L957.314 2676.75L956.36 2676.16L956.287 2676.09Z" fill="#F47231" fill-opacity="0.6"/>
<path d="M1111.5 2503.91L1247.72 2549.7L1234.95 2587.72L1138.07 2555.14L1123.76 2597.7L1209.48 2626.54L1196.71 2664.56L1110.99 2635.72L1096.46 2678.87L1197.15 2712.7L1184.38 2750.65L1044.43 2703.6L1111.58 2503.91H1111.5Z" fill="#F47231" fill-opacity="0.6"/>
<path d="M1290 2559.03L1331.02 2565.34L1305.19 2733.99L1403.09 2748.96L1397 2788.59L1258.07 2767.31L1290 2559.1V2559.03Z" fill="#F47231" fill-opacity="0.6"/>
<path d="M1451.9 2689.96C1451.31 2675.5 1453.58 2661.63 1458.57 2648.42C1463.56 2635.21 1470.83 2623.46 1480.3 2613.04C1489.69 2602.62 1500.77 2594.33 1513.54 2588.09C1526.31 2581.85 1540.11 2578.48 1554.93 2577.89C1569.61 2577.3 1583.56 2579.65 1596.77 2584.86C1609.98 2590.07 1621.72 2597.48 1632.14 2607.1C1642.56 2616.71 1650.78 2627.94 1656.95 2640.64C1663.11 2653.41 1666.41 2666.98 1667 2681.52C1667.59 2696.41 1665.31 2710.43 1660.18 2723.64C1655.04 2736.85 1647.7 2748.52 1638.01 2758.72C1628.4 2768.92 1617.17 2777.07 1604.47 2783.09C1591.7 2789.11 1577.98 2792.41 1563.3 2793C1548.4 2793.58 1534.39 2791.38 1521.25 2786.32C1508.04 2781.33 1496.37 2774.06 1486.17 2764.59C1475.97 2755.13 1467.82 2744.04 1461.8 2731.27C1455.78 2718.5 1452.48 2704.71 1451.9 2689.81V2689.96ZM1494.83 2688.27C1495.2 2697.59 1497.18 2706.25 1500.85 2714.25C1504.52 2722.25 1509.43 2729.22 1515.67 2735.16C1521.91 2741.11 1529.1 2745.66 1537.1 2748.81C1545.17 2751.97 1553.83 2753.29 1563.15 2753C1572.11 2752.63 1580.4 2750.58 1587.96 2746.91C1595.52 2743.16 1602.05 2738.1 1607.55 2731.64C1613.06 2725.26 1617.24 2717.92 1620.18 2709.7C1623.11 2701.48 1624.36 2692.67 1623.99 2683.35C1623.63 2673.81 1621.65 2665 1617.98 2656.93C1614.31 2648.86 1609.46 2641.89 1603.44 2635.87C1597.43 2629.92 1590.38 2625.37 1582.46 2622.22C1574.53 2619.06 1565.94 2617.67 1556.77 2618.03C1547.6 2618.4 1539.23 2620.45 1531.52 2624.2C1523.82 2627.94 1517.14 2633 1511.49 2639.46C1505.84 2645.92 1501.51 2653.26 1498.57 2661.55C1495.64 2669.92 1494.39 2678.8 1494.75 2688.34L1494.83 2688.27Z" fill="#F47231" fill-opacity="0.6"/>
<path d="M1934.8 2732.45L1742.74 2635.35L1756.39 2638.73L1791.11 2762.76L1750.52 2773.84L1692.84 2562.62L1694.45 2562.18L1883.06 2659.65L1873.16 2658.18L1837.71 2531.65L1878 2520.64L1935.76 2732.16L1934.66 2732.45H1934.8Z" fill="#F47231" fill-opacity="0.6"/>
<path d="M2135.72 2445.64C2126.62 2445.94 2117.74 2447.04 2109.16 2448.8C2100.57 2450.56 2093.16 2453.35 2086.92 2457.02C2079.21 2461.64 2074.07 2466.78 2071.51 2472.5C2068.94 2478.23 2069.52 2484.24 2073.19 2490.48C2075.76 2494.74 2079.65 2497.53 2085.08 2498.92C2090.51 2500.32 2096.61 2500.68 2103.43 2500.17C2110.33 2499.58 2117.3 2498.7 2124.27 2497.38C2130.66 2496.21 2137.26 2495.47 2144.09 2495.11C2150.84 2494.74 2157.52 2495.33 2163.98 2496.94C2170.44 2498.48 2176.75 2501.57 2182.76 2506.12C2188.78 2510.67 2194.36 2517.27 2199.57 2525.93C2205 2535.1 2207.72 2545.09 2207.64 2555.73C2207.64 2566.44 2204.41 2576.94 2198.1 2587.21C2191.79 2597.49 2181.88 2606.66 2168.45 2614.66C2161.56 2618.77 2154.14 2622.22 2146.14 2625.08C2138.14 2627.94 2129.92 2630 2121.34 2631.17C2112.75 2632.42 2103.94 2632.71 2094.92 2632.05L2094.11 2594.92C2100.2 2595.5 2106.51 2595.5 2112.9 2594.92C2119.36 2594.33 2125.45 2593.16 2131.32 2591.47C2137.19 2589.78 2142.25 2587.65 2146.51 2585.08C2150.77 2582.59 2154.73 2579.36 2158.33 2575.54C2161.92 2571.73 2164.27 2567.47 2165.44 2562.85C2166.55 2558.22 2165.52 2553.23 2162.44 2548.02C2160.31 2544.43 2157.15 2541.86 2153.04 2540.32C2148.93 2538.77 2144.09 2537.97 2138.66 2537.89C2133.15 2537.89 2127.5 2538.33 2121.7 2539.36C2114.88 2540.54 2107.61 2541.49 2100.05 2542.22C2092.5 2542.96 2084.94 2542.81 2077.38 2541.93C2069.82 2540.98 2062.7 2538.48 2055.87 2534.37C2049.05 2530.26 2043.18 2523.95 2037.97 2515.22C2031.73 2504.72 2028.65 2494.23 2028.72 2483.73C2028.79 2473.24 2031.8 2463.26 2037.6 2453.64C2043.47 2444.03 2051.76 2435.73 2062.63 2428.54C2077.23 2419.88 2090.07 2414.52 2101.23 2412.54C2112.38 2410.56 2122.95 2409.83 2133.01 2410.27L2135.72 2445.64Z" fill="#F47231" fill-opacity="0.6"/>
<path d="M2266.87 2450.19C2271.28 2455.26 2277 2458.78 2283.97 2460.76C2291.02 2462.74 2298.28 2463.04 2305.7 2461.64C2313.18 2460.25 2319.86 2456.94 2325.8 2451.81C2332.26 2446.16 2336.81 2439.77 2339.38 2432.51C2341.95 2425.24 2342.68 2418.05 2341.66 2410.86C2340.63 2403.66 2337.91 2397.57 2333.51 2392.51L2246.54 2292.11L2277.44 2265.32L2364.92 2366.38C2375.05 2378.05 2381.14 2390.89 2383.12 2404.91C2385.18 2418.93 2383.49 2432.73 2378.13 2446.38C2372.77 2460.03 2364.04 2471.99 2352.08 2482.34C2340.26 2492.61 2327.27 2499.36 2313.11 2502.67C2298.94 2505.97 2285.07 2505.6 2271.5 2501.64C2257.92 2497.68 2246.1 2489.75 2235.98 2478.08L2148.5 2377.02L2179.91 2349.87L2266.87 2450.27V2450.19Z" fill="#F47231" fill-opacity="0.6"/>
<path d="M2347.53 2181.29C2358.39 2167.71 2369.84 2158.1 2381.88 2152.3C2393.91 2146.57 2406.02 2144.52 2418.28 2146.21C2430.46 2147.89 2442.28 2153.32 2453.58 2162.35C2460.26 2167.71 2466.2 2174.09 2471.41 2181.58C2476.62 2189.07 2480.15 2197.14 2482.13 2205.95C2484.11 2214.75 2483.82 2224.15 2481.32 2234.27C2478.75 2244.33 2473.17 2254.75 2464.59 2265.47L2446.02 2288.73L2498.05 2330.42L2472.15 2362.85L2307.68 2231.19L2347.6 2181.36L2347.53 2181.29ZM2432.88 2240.44C2436.85 2235.52 2439.27 2230.75 2440.15 2226.13C2441.03 2221.5 2440.96 2217.17 2439.86 2213.21C2438.75 2209.25 2437.07 2205.73 2434.94 2202.64C2432.81 2199.56 2430.61 2197.21 2428.55 2195.52C2426.94 2194.2 2424.52 2192.74 2421.36 2191.05C2418.21 2189.36 2414.54 2188.19 2410.35 2187.6C2406.24 2186.94 2401.84 2187.6 2397.22 2189.36C2392.59 2191.19 2388.04 2194.86 2383.49 2200.51L2364.85 2223.78L2414.46 2263.48L2432.88 2240.44Z" fill="#F47231" fill-opacity="0.6"/>
<path d="M2690.7 1683.92L2683.81 1733.09L2651.81 1728.62L2658.71 1679.45L2690.7 1683.92Z" fill="#292758" fill-opacity="0.6"/>
<path d="M1514.41 2480.95C1501.64 2480.95 1488.87 2480.73 1476.1 2480.21C1217.92 2470.23 979.036 2360.29 803.488 2170.58C628.013 1980.94 536.79 1734.27 546.771 1476.08C556.752 1217.9 666.689 979.011 856.402 803.461C1046.04 627.912 1292.92 536.761 1550.89 546.742C1809.07 556.723 2047.96 666.662 2223.5 856.376C2398.98 1046.02 2490.2 1292.68 2480.22 1550.87C2470.24 1809.06 2360.3 2047.94 2170.59 2223.49C1990.35 2390.31 1758.65 2480.95 1514.41 2480.95ZM1512.58 599.069C1281.77 599.069 1062.77 684.716 892.363 842.358C713.145 1008.29 609.225 1234.04 599.758 1478.07C590.291 1722.16 676.45 1955.25 842.384 2134.54C1008.32 2313.76 1234.06 2417.68 1478.09 2427.15C1722.33 2436.4 1955.27 2350.46 2134.56 2184.52C2313.77 2018.59 2417.69 1792.84 2427.16 1548.81C2436.63 1304.72 2350.47 1071.63 2184.53 892.337C2018.6 713.118 1792.85 609.197 1548.83 599.73C1536.72 599.289 1524.61 598.996 1512.58 598.996V599.069Z" fill="#292758" fill-opacity="0.6"/>
<path d="M1514.2 2948C1495.56 2948 1476.84 2947.63 1458.05 2946.9C667.647 2916.37 49.4856 2248.44 80.0891 1458.03C110.693 667.613 778.832 50.0328 1568.95 80.0495C2359.35 110.653 2977.51 778.579 2946.91 1568.92C2917.04 2340.55 2279.8 2948 1514.2 2948ZM1512.8 132.01C775.456 132.01 161.845 717.005 133.076 1460.08C103.647 2221.21 698.911 2864.48 1460.11 2893.91C2221.23 2923.71 2864.49 2328.07 2893.92 1566.87C2923.35 805.734 2328.09 162.54 1566.89 133.111C1548.84 132.377 1530.71 132.083 1512.8 132.083V132.01Z" fill="#292758" fill-opacity="0.6"/>
<path d="M341.795 1733.02L333.796 1684L365.647 1678.79L373.646 1727.81L341.795 1733.02Z" fill="#292758" fill-opacity="0.6"/>
<path d="M248.531 1455.75L259.099 1334.44L296.014 1337.67L288.749 1420.75L332.783 1424.56L339.021 1352.57L375.936 1355.8L369.698 1427.79L445.95 1434.4L442.647 1472.63L248.531 1455.75Z" fill="#292758" fill-opacity="0.6"/>
<path d="M250.866 1144.73L276.259 1191.33L270.901 1213.2L241.105 1184.58L250.866 1144.73ZM270.241 1268.68L302.018 1139.59L337.979 1148.47L315.375 1240.28L355.74 1250.19L375.702 1168.94L411.663 1177.82L391.701 1259.07L432.579 1269.12L456.063 1173.71L492.024 1182.59L459.366 1315.28L270.167 1268.76L270.241 1268.68Z" fill="#292758" fill-opacity="0.6"/>
<path d="M583.253 989.796L400.586 1068.91L411.081 1061.2L519.844 1109.86L503.699 1145.31L319.344 1061.35L320.004 1059.88L500.91 983.411L494.011 989.576L383.119 939.89L399.118 904.736L583.693 988.842L583.253 989.796Z" fill="#292758" fill-opacity="0.6"/>
<path d="M443.886 831.346L520.358 722.582L550.668 743.938L496.286 821.218L530.266 845.143L578.409 776.744L608.719 798.1L560.576 866.5L594.995 890.719L651.505 810.356L681.815 831.713L603.215 943.487L443.812 831.419L443.886 831.346Z" fill="#292758" fill-opacity="0.6"/>
<path d="M568.21 666.073L594.997 638.552L708.091 748.564L772.013 682.953L798.58 708.786L707.944 801.919L568.283 666L568.21 666.073Z" fill="#292758" fill-opacity="0.6"/>
<path d="M756.895 613.598C749.043 602.736 743.759 590.92 740.896 578.151C738.034 565.454 737.594 552.611 739.575 539.841C741.557 526.997 745.887 514.961 752.492 503.659C759.17 492.357 768.05 482.67 779.279 474.67C790.361 466.744 802.25 461.46 815.093 458.744C827.936 456.029 840.853 455.735 853.77 457.864C866.686 459.992 878.796 464.395 890.024 471.147C901.253 477.899 910.793 486.633 918.646 497.568C926.646 508.723 932.076 520.759 934.865 533.529C937.654 546.299 937.948 559.069 935.673 571.912C933.471 584.682 928.921 596.645 922.242 607.874C915.49 619.029 906.61 628.57 895.528 636.496C884.373 644.569 872.411 650 859.641 652.862C846.871 655.724 834.175 656.091 821.552 654.036C808.855 651.981 796.966 647.578 785.737 640.753C774.582 634.001 764.968 625.047 756.969 613.818L756.895 613.598ZM789.113 590.407C794.177 597.452 800.122 603.103 807.02 607.36C813.919 611.69 821.258 614.479 829.111 615.947C836.963 617.341 844.816 617.194 852.595 615.506C860.375 613.818 867.787 610.442 874.832 605.378C881.584 600.535 886.942 594.737 890.905 587.985C894.868 581.233 897.29 573.967 898.244 566.261C899.198 558.555 898.684 550.703 896.776 542.85C894.868 534.997 891.345 527.585 886.281 520.539C881.144 513.347 875.126 507.622 868.154 503.219C861.182 498.816 853.843 495.88 846.211 494.412C838.505 492.871 830.725 492.944 823.019 494.559C815.313 496.247 807.974 499.549 801.076 504.467C794.177 509.457 788.746 515.255 784.71 522.08C780.674 528.906 778.105 536.245 777.004 544.024C775.903 551.877 776.344 559.803 778.325 567.656C780.307 575.582 783.903 583.141 789.04 590.26L789.113 590.407Z" fill="#292758" fill-opacity="0.6"/>
<path d="M1171.84 495.367L982.857 432.765L995.847 434.013L1044.58 542.777L1008.98 558.483L927.374 373.099L928.842 372.438L1114.74 435.774H1105.49L1055.81 324.881L1091.18 309.322L1172.94 494.927L1171.98 495.367H1171.84Z" fill="#292758" fill-opacity="0.6"/>
<path d="M1379.82 291.415C1371.89 288.626 1363.89 286.498 1355.82 285.103C1347.82 283.709 1340.55 283.562 1333.88 284.589C1325.66 285.911 1319.49 288.626 1315.31 292.662C1311.12 296.772 1309.58 302.056 1310.61 308.735C1311.34 313.285 1313.77 317.028 1317.95 320.037C1322.06 323.046 1327.2 325.468 1333.36 327.376C1339.53 329.211 1345.76 330.825 1352.22 332.146C1358.09 333.321 1364.04 334.935 1370.06 336.917C1376 338.898 1381.5 341.687 1386.57 345.283C1391.63 348.879 1395.96 353.576 1399.63 359.521C1403.23 365.466 1405.8 373.025 1407.26 382.272C1408.81 392.033 1407.78 401.5 1404.04 410.674C1400.29 419.848 1393.98 427.774 1385.03 434.526C1376.07 441.205 1364.48 445.755 1350.24 448.03C1342.9 449.204 1335.34 449.644 1327.49 449.424C1319.64 449.131 1311.86 448.103 1304.08 446.195C1296.23 444.287 1288.59 441.572 1281.03 437.975L1293 405.757C1298.06 408.326 1303.42 410.454 1309.14 412.142C1314.87 413.83 1320.52 414.931 1326.17 415.445C1331.82 415.958 1336.88 415.811 1341.43 415.151C1345.98 414.417 1350.46 413.023 1354.86 410.968C1359.27 408.913 1362.79 406.051 1365.29 402.454C1367.85 398.858 1368.66 394.235 1367.78 388.657C1367.19 384.841 1365.36 381.538 1362.28 378.823C1359.27 376.107 1355.38 373.759 1350.68 371.851C1345.98 369.943 1340.99 368.401 1335.64 367.3C1329.32 365.979 1322.79 364.365 1316.04 362.383C1309.29 360.402 1302.83 357.76 1296.67 354.384C1290.5 351.008 1285.22 346.384 1280.74 340.586C1276.34 334.789 1273.4 327.229 1271.86 317.982C1270.1 306.827 1270.98 296.772 1274.65 287.745C1278.32 278.718 1284.26 271.159 1292.56 264.921C1300.85 258.683 1310.9 254.353 1322.65 251.931C1338.13 249.435 1351.05 249.215 1361.32 251.344C1371.6 253.399 1380.92 256.408 1389.43 260.224L1379.74 291.562L1379.82 291.415Z" fill="#292758" fill-opacity="0.6"/>
<path d="M1431.19 432.181L1518.3 229.256H1520.43L1609.08 431.447L1564.61 431.594L1507.95 289.363L1535.69 270.135L1469.06 431.887L1431.19 432.034V432.181ZM1491 361.506L1549.49 361.286L1563.14 393.504L1479.18 393.798L1491 361.432V361.506Z" fill="#292758" fill-opacity="0.6"/>
<path d="M1659.07 243.861L1697.16 248.411L1673.97 441.868L1635.81 437.318L1659.07 243.861Z" fill="#292758" fill-opacity="0.6"/>
<path d="M1889.96 499.772L1782.29 332.295L1791.62 341.396L1761.23 456.619L1723.66 446.417L1776.64 250.905L1778.18 251.346L1882.91 417.428L1875.72 411.63L1906.76 294.132L1944.12 304.26L1891.06 500.066L1890.03 499.772H1889.96Z" fill="#292758" fill-opacity="0.6"/>
<path d="M2010.38 330.829L2129.13 386.972L2113.28 420.438L2070.42 400.183L2002.97 542.854L1968.26 526.414L2035.7 383.743L1994.53 364.295L2010.38 330.755V330.829Z" fill="#292758" fill-opacity="0.6"/>
<path d="M2186.31 419.776L2296.46 494.194L2275.69 524.871L2197.39 471.956L2174.12 506.45L2243.48 553.273L2222.71 583.95L2153.43 537.127L2129.87 571.988L2211.26 626.957L2190.49 657.708L2077.25 581.235L2186.31 419.776Z" fill="#292758" fill-opacity="0.6"/>
<path d="M2261.67 619.25L2299.32 651.835L2278.18 676.274L2240.53 643.762L2261.67 619.323V619.25Z" fill="#292758" fill-opacity="0.6"/>
<path d="M2282.07 734.839L2436.26 603.104L2436.41 603.324L2389.95 785.405L2382.1 770.507L2566.24 755.315L2566.6 755.756L2412.41 887.491L2387.46 858.282L2475.82 782.763L2462.24 797.441L2348.2 808.23L2347.83 807.789L2375.06 695.355L2393.26 688.53L2306.07 763.021L2282 734.839H2282.07Z" fill="#292758" fill-opacity="0.6"/>
<path d="M2427.75 911.417L2647.48 889.987L2648.51 891.821L2514.06 1067L2492.48 1028.11L2589.8 909.949L2619.96 924.994L2446.1 944.589L2427.68 911.49L2427.75 911.417ZM2518.46 929.764L2546.86 980.917L2525.21 1008.37L2484.48 934.975L2518.54 929.691L2518.46 929.764Z" fill="#292758" fill-opacity="0.6"/>
<path d="M2727.18 1084.47C2731.22 1095.92 2733.35 1106.71 2733.57 1116.69C2733.79 1126.75 2732.32 1135.7 2729.02 1143.7C2725.72 1151.7 2720.87 1158.6 2714.41 1164.4C2707.96 1170.19 2699.96 1174.82 2690.42 1178.12C2682.93 1180.76 2675 1182.23 2666.71 1182.67C2658.42 1183.11 2650.35 1181.79 2642.35 1178.85C2634.35 1175.92 2627.08 1171 2620.4 1163.96C2613.72 1156.98 2608.22 1147.3 2603.89 1134.97L2594.79 1108.99L2536.3 1129.46L2523.6 1093.21L2707.52 1028.7L2727.04 1084.4L2727.18 1084.47ZM2628.4 1164.32L2573.43 1234.7L2558.61 1192.43L2612.26 1121.39L2628.4 1164.25V1164.32ZM2638.97 1122.49C2640.88 1127.99 2643.45 1132.25 2646.53 1135.26C2649.69 1138.27 2652.99 1140.32 2656.58 1141.42C2660.11 1142.53 2663.63 1142.97 2667.01 1142.82C2670.38 1142.67 2673.46 1142.08 2676.11 1141.2C2678.09 1140.47 2680.58 1139.3 2683.44 1137.68C2686.31 1135.99 2689.02 1133.72 2691.52 1130.78C2694.01 1127.85 2695.7 1124.1 2696.58 1119.63C2697.46 1115.08 2696.73 1109.72 2694.53 1103.33L2685.43 1077.35L2629.94 1096.8L2638.97 1122.56V1122.49Z" fill="#292758" fill-opacity="0.6"/>
<path d="M2768.34 1224.28L2776.41 1261.78L2585.89 1302.88L2577.82 1265.38L2768.34 1224.28Z" fill="#292758" fill-opacity="0.6"/>
<path d="M2790.21 1334.44L2802.17 1466.84L2765.26 1470.14L2756.74 1375.98L2715.35 1379.72L2722.91 1463.02L2686 1466.39L2678.44 1383.1L2636.53 1386.91L2645.34 1484.74L2608.42 1488.12L2596.17 1352.05L2790.28 1334.51L2790.21 1334.44Z" fill="#292758" fill-opacity="0.6"/>
<path d="M2237.91 1407.61L2152.81 1466.27L2136.21 1597.28L2102.99 1722.42L2046.95 1847.56L1974.3 1960.97L1882.97 2058.74L1775.03 2146.73L1648.41 2221.03L1513.49 2283.6L1372.34 2219.07L1241.57 2138.91L1131.56 2047.01L1040.23 1945.33L967.581 1831.92L915.689 1708.73L884.553 1589.46L872.099 1466.27L789.07 1407.61V912.915L957.203 858.166L1046.46 834.702L1135.71 817.104L1312.15 791.685L1492.74 781.908L1683.7 789.729L1868.44 813.193L2057.33 856.21L2237.91 912.915V1407.61Z" fill="#292758" fill-opacity="0.6"/>
<path d="M2194.34 1380.23L2109.23 1348.95L2107.16 1468.22L2103.01 1528.84L2094.7 1585.54L2082.25 1646.16L2063.57 1706.77L2036.58 1771.3L2007.52 1833.87L1974.31 1888.62L1934.87 1941.41L1845.62 2037.23L1748.06 2115.44L1694.09 2150.63L1635.97 2181.92L1513.5 2239.19L1447.08 2211.25L1388.96 2181.92L1355.75 2164.32L1324.61 2144.77L1266.49 2107.62L1212.53 2066.56L1162.71 2023.54L1117.04 1974.65L1096.29 1951.19L1075.53 1925.77L1056.85 1898.4L1040.24 1871.02L1007.03 1816.27L982.122 1759.57L959.29 1700.91L928.154 1585.54L917.775 1468.22L913.624 1348.95L830.596 1378.28V940.286L1021.56 881.626L1102.51 864.028L1183.47 848.23L1334.99 828.832L1490.67 822.966L1660.88 826.877L1818.63 844.475L1986.77 877.715L2067.72 899.224L2148.67 926.599L2192.26 942.241L2194.34 1147.55V1380.23Z" fill="white" fill-opacity="0.6"/>
<path d="M2169.43 955.929V1346.99L2088.48 1317.66L2007.53 1294.2L1839.39 1257.05L1677.49 1235.54L1511.43 1229.67L1341.22 1235.54L1177.24 1257.05L1013.26 1294.2L932.309 1319.62L853.432 1346.99V957.884L1009.11 909.001L1175.17 871.85L1341.22 850.341L1515.58 844.475L1681.64 850.341L1843.54 871.85L2009.6 909.001L2169.43 955.929Z" fill="#292758" fill-opacity="0.6"/>
<path d="M1418.02 2359.85L1393.11 2338.35L1415.95 2328.57L1436.7 2318.79L1482.37 2301.19L1455.39 2295.33L1428.4 2291.42L1372.36 2283.6L1359.9 2285.55L1351.6 2289.46L1330.84 2297.28L1308.01 2303.15L1285.18 2305.11L1262.34 2303.15L1241.59 2299.24L1208.38 2285.55L1233.28 2275.78L1260.27 2269.91H1318.39L1260.27 2250.36L1231.21 2252.31L1202.15 2254.27L1171.01 2252.31L1141.95 2242.53L1117.04 2230.8L1096.29 2215.16L1127.42 2211.25H1158.56L1216.68 2230.8L1166.86 2201.47L1154.41 2193.65L1139.88 2189.74L1106.67 2187.79L1090.06 2185.83L1073.46 2181.92L1044.4 2166.28L1021.56 2148.68L1002.88 2131.08L1036.09 2133.04L1067.23 2140.86L1117.04 2166.28L1073.46 2129.13L1061 2121.3L1046.47 2115.44L1015.34 2107.62L1000.81 2103.71L988.351 2097.84L975.897 2090.02L965.518 2080.24L946.837 2062.64L936.458 2045.05L963.442 2050.91L990.427 2060.69L1013.26 2074.38L1036.09 2091.97L1004.96 2054.82L994.578 2045.05L984.2 2039.18L955.14 2029.4L930.231 2015.72L919.853 2007.9L911.55 2000.07L903.247 1988.34L894.944 1978.57L884.566 1959.01L911.55 1966.83L934.383 1978.57L973.821 2013.76L946.837 1972.7L938.534 1960.97L926.08 1955.1L901.171 1943.37L882.49 1927.73L867.96 1910.13L857.581 1890.58L851.354 1871.02L874.187 1882.75L894.944 1898.4L913.625 1916L928.155 1935.55L909.474 1894.49L892.868 1874.93L872.111 1861.25L855.506 1843.65L843.051 1824.09L834.749 1804.54L832.673 1783.03L851.354 1796.72L861.733 1806.5L867.96 1814.32L894.944 1853.42L882.49 1812.36L872.111 1792.81L863.808 1771.3V1734.15L865.884 1714.6L872.111 1697L886.641 1732.19L890.793 1749.79L892.868 1769.35L890.793 1806.5L892.868 1826.05L899.096 1843.65L903.247 1806.5L911.55 1788.9L924.004 1773.26L928.155 1790.85V1808.45L921.928 1845.6L911.55 1874.93L919.853 1898.4L924.004 1910.13L930.231 1921.86V1882.75V1872.98L934.383 1861.25L946.837 1843.65L953.064 1861.25L957.215 1880.8V1902.31L953.064 1921.86L948.913 1931.64V1941.41V1953.15L953.064 1962.92L975.897 1998.12L969.67 1976.61L965.518 1953.15L967.594 1929.68L975.897 1908.17L986.275 1923.82L994.578 1943.37L996.654 1966.83V1988.34L994.578 2009.85L996.654 2021.58L998.73 2031.36L1029.87 2068.51L1019.49 2047L1013.26 2021.58V1998.12L1015.34 1988.34L1019.49 1976.61L1031.94 1992.25L1040.24 2009.85L1046.47 2031.36V2052.87L1048.55 2072.42L1050.62 2084.15L1052.7 2091.97L1061 2101.75L1067.23 2111.53L1087.98 2127.17L1075.53 2105.66L1069.3 2093.93L1067.23 2082.2L1065.15 2058.73L1069.3 2035.27L1083.83 2050.91L1096.29 2070.47L1102.51 2088.06L1108.74 2107.62L1110.82 2131.08L1112.89 2142.81L1119.12 2152.59L1137.8 2168.23L1158.56 2181.92L1141.95 2162.37L1129.5 2140.86L1125.35 2117.39L1127.42 2093.93L1144.03 2107.62L1156.48 2123.26L1168.94 2142.81L1175.16 2162.37L1183.47 2185.83L1187.62 2197.56L1198 2205.38L1239.51 2228.85L1220.83 2211.25L1206.3 2191.7L1195.92 2170.19L1193.85 2144.77L1231.21 2172.14L1245.74 2189.74L1256.12 2207.34L1268.57 2226.89L1283.1 2244.49L1308.01 2254.27L1334.99 2262.09L1310.09 2248.4L1289.33 2230.8L1276.87 2209.29L1272.72 2199.52L1268.57 2187.79L1297.63 2199.52L1324.62 2215.16L1347.45 2236.67L1364.05 2260.13L1378.58 2269.91L1386.89 2273.82L1397.27 2275.78L1436.7 2281.64L1515.58 2295.33L1648.43 2273.82L1662.96 2264.04L1673.33 2252.31L1696.17 2224.94L1710.7 2213.2L1725.23 2203.43L1762.59 2187.79L1760.51 2201.47L1754.29 2213.2L1739.76 2234.71L1719 2248.4L1696.17 2262.09L1729.38 2252.31L1745.98 2246.45L1756.36 2236.67L1772.97 2211.25L1799.95 2172.14L1818.63 2158.46L1839.39 2146.72L1835.24 2172.14L1826.94 2193.65L1808.26 2211.25L1789.57 2228.85L1826.94 2211.25L1843.54 2199.52L1851.85 2172.14L1870.53 2129.13L1903.74 2093.93L1907.89 2119.35L1903.74 2140.86L1893.36 2160.41L1876.75 2179.96L1920.34 2146.72L1922.42 2129.13V2111.53L1930.72 2082.2L1943.18 2056.78L1961.86 2035.27L1966.01 2072.42L1957.71 2101.75L1943.18 2129.13L1966.01 2111.53L1980.54 2088.06L1984.69 2058.73L1986.77 2027.45L1997.15 2000.07L2013.75 1976.61L2019.98 2000.07V2021.58L2013.75 2045.05L2005.45 2068.51L2022.05 2048.96L2036.58 2025.49V1998.12L2032.43 1976.61L2036.58 1951.19L2044.89 1929.68L2055.27 1910.13L2065.64 1943.37L2059.42 1998.12L2073.95 1970.74L2082.25 1955.1V1943.37L2080.17 1929.68L2078.1 1917.95L2076.02 1908.17L2073.95 1884.71L2078.1 1861.25L2086.4 1841.69L2096.78 1857.34L2100.93 1872.98L2103.01 1892.53V1921.86L2115.46 1888.62L2117.54 1871.02L2111.31 1847.56L2105.08 1833.87L2103.01 1814.32L2105.08 1794.76L2109.23 1775.21L2121.69 1786.94L2127.91 1800.63L2134.14 1841.69L2140.61 1818.23V1800.63V1790.85L2138.29 1779.12L2136.22 1761.52L2138.29 1751.75L2146.6 1726.33L2159.05 1698.95L2169.43 1724.37L2171.5 1751.75L2165.28 1777.17L2154.9 1800.63L2148.67 1816.27L2140.61 1849.51L2165.28 1810.41L2183.96 1794.76L2198.49 1783.03L2196.41 1806.5L2188.11 1828.01L2159.05 1859.29L2136.22 1876.89L2123.76 1892.53L2103.01 1935.55L2136.22 1896.44L2159.05 1882.75L2181.88 1872.98L2162.11 1912.08L2144.52 1931.64L2127.91 1943.37L2103.01 1955.1L2090.55 1964.88L2082.25 1976.61L2059.42 2011.81L2098.85 1980.52L2121.69 1966.83L2148.67 1959.01L2121.69 2000.07L2098.85 2017.67L2073.95 2029.4L2044.89 2041.14L2034.51 2047L2028.28 2054.82L2009.6 2074.38L1995.07 2093.93L2040.74 2060.69L2067.72 2050.91L2096.78 2045.05L2080.17 2068.51L2059.42 2088.06L2049.04 2095.89L2034.51 2101.75L2005.45 2109.57L1984.69 2115.44L1970.16 2121.3L1953.56 2133.04L1943.18 2140.86L1932.8 2150.63L1914.12 2168.23L1963.93 2140.86L1995.07 2133.04H2026.21L2005.45 2154.55L1978.46 2172.14L1951.48 2183.87L1924.5 2187.79L1889.21 2189.74L1866.38 2201.47L1843.54 2213.2L1816.56 2230.8L1847.69 2219.07L1876.75 2213.2L1907.89 2211.25L1936.95 2215.16L1897.51 2238.62L1876.75 2248.4L1853.92 2254.27H1829.01L1808.26 2252.31L1789.57 2250.36H1775.04L1745.98 2258.18L1714.85 2269.91H1741.83H1770.89L1795.8 2275.78L1822.79 2285.55L1802.03 2293.37L1783.35 2301.19L1762.59 2303.15H1743.91L1723.15 2301.19L1702.39 2297.28L1683.71 2289.46L1662.96 2283.6L1604.84 2291.42L1550.87 2301.19L1596.53 2318.79L1640.12 2340.3L1611.06 2357.9L1590.31 2342.26L1567.47 2328.57L1515.58 2309.02L1461.61 2330.52L1438.78 2344.21L1418.02 2359.85Z" fill="#292758" fill-opacity="0.6"/>
<path d="M2082.23 1337.21L2078.08 1483.86L2069.78 1564.03L2051.1 1640.29L2030.34 1708.73L2003.36 1773.25L1972.22 1835.82L1932.78 1892.53L1889.19 1947.28L1866.36 1972.7L1843.53 1996.16L1793.71 2041.13L1741.82 2082.19L1685.77 2119.35L1627.65 2152.59L1569.53 2181.92L1538.4 2195.6L1509.34 2205.38L1434.61 2174.09L1364.04 2138.9L1299.69 2097.84L1241.57 2054.82L1187.6 2007.89L1135.71 1955.1L1087.97 1896.44L1048.53 1837.78L1019.47 1781.07L992.487 1720.46L971.729 1657.89L955.124 1593.36L944.745 1528.84L938.518 1466.27L936.442 1335.26L1002.87 1315.71L1036.08 1307.88L1069.29 1300.06L1137.79 1284.42L1206.28 1272.69L1243.65 1266.82L1281.01 1260.96L1330.83 1255.09L1245.72 1300.06L1212.51 1323.53L1179.3 1350.9L1127.41 1409.56L1087.97 1472.13L1063.06 1532.75L1048.53 1595.32L1042.3 1657.89L1044.38 1720.46L1058.91 1788.9L1087.97 1857.33L1129.48 1919.9L1181.38 1978.56L1247.8 2029.4L1326.68 2072.42L1413.86 2097.84L1507.26 2105.66L1548.78 2103.7L1590.29 2099.79L1629.73 2091.97L1669.17 2080.24L1748.04 2045.04L1816.54 1996.16L1851.83 1964.87L1882.97 1929.68L1909.95 1892.53L1932.78 1851.47L1949.39 1814.31L1961.84 1773.25L1970.15 1732.19L1976.37 1689.17L1974.3 1624.65L1963.92 1558.17L1943.16 1497.55L1912.03 1438.89L1870.51 1382.19L1820.69 1333.3L1758.42 1290.29L1687.85 1255.09L1727.29 1259L1799.94 1268.78L1872.59 1282.46L1907.87 1288.33L1943.16 1298.11L2013.74 1315.71L2082.23 1337.21Z" fill="#F47231" fill-opacity="0.6"/>
<g filter="url(#filter1_d_110_399)">
<path d="M1181.58 1642.06L1171.6 1599.09L1169.1 1630.12L1156.62 1658.77L1134.16 1711.3L1126.68 1737.56L1121.68 1766.21V1797.25L1108.74 1851.47L1096.28 1824.09L1077.6 1773.25L1067.22 1735.17L1063.07 1708.91L1046.47 1615.8L1042.32 1667.66L1044.39 1718.5L1048.54 1747.83L1054.77 1775.21L1058.92 1790.85L1067.22 1810.4L1083.83 1849.51L1087.98 1857.33L1104.59 1882.75L1117.04 1902.3L1127.42 1917.95L1141.95 1935.54L1162.71 1959.01L1181.39 1978.56L1216.68 2005.94L1245.73 2029.4L1283.1 2048.95L1324.61 2072.42L1370.28 2086.1L1413.87 2097.84L1461.61 2101.75L1507.27 2105.66L1548.79 2103.7L1592.38 2099.79L1635.79 2090.9L1669.18 2080.24L1681.63 2074.37L1727.3 2054.82L1748.06 2045.04L1772.97 2027.44L1814.48 1998.11L1849.77 1966.83L1882.98 1929.68L1909.96 1892.53L1932.79 1851.47L1953.55 1804.54L1966.01 1759.05L1974.31 1710.68L1976.38 1685.26L1974.31 1649.22L1961.85 1696.97L1953.55 1739.95L1945.25 1775.21L1932.79 1808.45L1918.26 1843.64L1899.58 1876.88L1878.83 1906.21L1858.07 1931.63L1839.39 1951.19L1814.48 1976.61L1785.42 1996.16L1762.59 2013.76L1710.66 2041.13L1654.65 2062.64L1658.25 2028.83L1660.74 1993.02L1670.73 1959.59L1683.21 1926.17L1693.19 1940.49L1700.68 1871.26L1713.15 1885.58L1715.65 1871.26L1713.15 1852.16L1703.17 1818.73L1695.68 1785.31L1698.18 1768.6L1710.66 1754.27L1730.62 1761.43L1740.61 1763.82L1753.08 1766.21H1768.06L1783.03 1759.05L1795.51 1751.88L1803 1739.95L1812.98 1730.4L1825.46 1725.62L1832.94 1708.91L1835.44 1696.97L1830.45 1682.65L1815.48 1668.32L1822.96 1654L1825.46 1637.29L1820.47 1613.41L1822.96 1591.92L1827.95 1579.99L1837.94 1565.66L1852.91 1548.95L1860.4 1529.85L1862.89 1508.36L1875.37 1494.04L1885.35 1477.33L1902.82 1441.52L1912.81 1403.32L1920.29 1367.51V1331.69L1922.79 1300.66L1915.3 1267.23L1910.31 1257.68L1897.83 1248.13L1882.86 1252.91L1865.39 1262.46L1837.94 1283.94L1810.48 1305.43L1783.03 1329.31L1750.59 1355.57L1720.64 1386.6L1695.68 1415.25L1670.73 1451.07L1618.32 1453.45L1598.35 1420.03L1573.4 1386.6L1545.94 1355.57L1533.47 1341.24L1518.49 1329.31L1491.04 1300.66L1456.1 1272.01L1418.67 1250.52L1398.7 1243.36L1373.75 1245.75L1366.26 1250.52L1356.28 1260.07L1346.29 1283.94L1338.81 1310.21L1336.31 1336.47V1360.34L1338.81 1386.6L1348.79 1436.74L1358.77 1465.39L1363.76 1477.33L1371.25 1486.88L1383.73 1510.75L1388.72 1525.08L1393.71 1537.01L1396.21 1551.34L1406.19 1560.89L1421.16 1572.83L1431.14 1579.99L1446.12 1599.09L1466.08 1618.19L1438.63 1668.32L1463.59 1649.22L1456.1 1677.87L1446.12 1704.13L1433.64 1720.85L1418.67 1735.17L1401.2 1756.66L1383.73 1766.21L1353.78 1782.92L1373.75 1716.07L1381.23 1687.42L1383.73 1651.61L1381.23 1634.9L1376.24 1615.8L1363.76 1584.76L1346.29 1556.11L1328.82 1529.85L1333.81 1558.5L1296.38 1517.91L1271.42 1501.2L1243.97 1489.26L1191.56 1479.71H1166.61L1139.15 1486.88L1164.11 1496.43L1181.58 1513.14L1196.55 1534.63L1204.04 1563.28L1199.05 1603.86L1191.56 1625.35L1181.58 1642.06Z" fill="#292758" fill-opacity="0.6" stroke="white" stroke-opacity="0.6" stroke-width="3.50945"/>
<path d="M1670.74 1833.06L1688.2 1847.39V1823.51L1683.21 1816.35L1678.22 1802.02L1675.73 1780.54L1680.72 1756.66L1653.27 1761.44L1633.3 1780.54L1620.82 1804.41V1830.67L1593.37 1802.02L1573.4 1770.99L1570.91 1806.8L1585.88 1835.45L1615.83 1897.52L1613.34 1930.95L1605.85 1950.05L1590.87 1976.31L1568.41 1993.02L1590.87 1983.47L1613.34 1964.37L1630.8 1942.88L1643.28 1909.46L1640.79 1959.6L1660.75 1923.78L1665.74 1907.07V1880.81L1680.72 1897.52L1670.74 1833.06Z" fill="white" fill-opacity="0.6"/>
<path d="M1670.74 1706.53L1663.25 1716.08L1680.72 1713.69L1690.7 1718.46L1705.67 1723.24L1718.15 1730.4L1748.1 1735.18H1780.54L1775.55 1739.95L1763.07 1744.73H1745.6L1725.64 1739.95L1678.22 1728.01L1625.81 1725.63L1603.35 1730.4L1580.89 1737.56L1588.38 1725.63L1603.35 1718.46L1585.88 1716.08L1568.41 1718.46L1553.44 1720.85L1543.46 1725.63H1535.97L1540.96 1718.46L1550.94 1708.91L1573.4 1696.98L1538.47 1699.36L1508.52 1713.69L1511.01 1701.75L1521 1692.2L1560.93 1665.94H1543.46L1578.4 1649.23L1625.81 1668.33H1660.75L1693.2 1682.65H1640.79L1615.83 1685.04L1595.87 1692.2H1690.7V1699.36L1653.27 1701.75L1623.32 1711.3L1670.74 1706.53Z" fill="white" fill-opacity="0.6"/>
<path d="M1810.49 1706.53L1800.51 1718.46H1803H1810.49L1815.48 1713.69V1706.53H1810.49Z" fill="white" fill-opacity="0.6"/>
<path d="M1798.01 1685.04L1795.52 1692.2H1817.98L1820.47 1689.81L1817.98 1687.43L1815.48 1685.04H1798.01Z" fill="white" fill-opacity="0.6"/>
<path d="M1730.63 1687.43H1770.56L1780.54 1677.88L1770.56 1673.1L1758.08 1661.17L1745.6 1642.07L1740.61 1620.58L1743.11 1599.09L1765.57 1620.58L1773.06 1637.29L1780.54 1649.23L1795.52 1663.55L1810.49 1677.88H1795.52H1788.03L1778.88 1682.65L1775.55 1689.81V1699.36L1783.04 1706.53L1795.52 1716.08L1758.08 1725.63L1735.62 1723.24L1718.15 1716.08L1713.16 1706.53L1745.6 1711.3L1750.6 1706.53L1715.66 1701.75L1720.65 1692.2L1750.6 1701.75L1730.63 1687.43Z" fill="white" fill-opacity="0.6"/>
<path d="M1498.54 1336.47L1501.03 1331.7L1560.93 1398.55L1610.84 1472.56L1618.33 1494.04L1615.83 1510.76L1560.93 1420.03L1498.54 1336.47Z" fill="white" fill-opacity="0.6"/>
<path d="M1628.31 1470.17L1625.81 1460.62L1648.27 1463.01L1660.75 1470.17L1668.24 1477.33L1658.26 1463.01H1673.23L1688.2 1465.39L1715.66 1477.33L1718.15 1486.88L1698.19 1477.33L1678.22 1474.94L1683.21 1501.21L1658.26 1482.11L1628.31 1470.17Z" fill="white" fill-opacity="0.6"/>
<path d="M1870.39 1274.4L1842.93 1295.89L1770.56 1415.26L1743.11 1498.82L1730.63 1501.21L1765.57 1522.69L1775.55 1539.41L1783.04 1558.51L1803 1568.05L1800.51 1558.51L1795.52 1548.96L1785.53 1532.24L1775.55 1517.92L1770.56 1510.76L1760.58 1505.98L1758.08 1496.43L1760.58 1486.88L1765.57 1467.78L1778.05 1429.58L1795.52 1389L1815.48 1350.8L1840.44 1310.21L1870.39 1274.4Z" fill="white" fill-opacity="0.6"/>
<path d="M1877.87 1295.89L1870.39 1298.27L1845.43 1326.92L1825.47 1362.73L1808 1398.55L1800.51 1417.65L1798.01 1427.2V1434.36L1810.49 1427.2L1800.51 1436.75L1795.52 1441.52L1790.53 1448.68L1783.04 1472.56L1780.54 1496.43L1785.53 1498.82L1808 1489.27L1835.45 1463.01L1805.5 1472.56L1845.43 1415.26L1815.48 1429.58L1857.91 1372.28L1830.46 1384.22L1877.87 1295.89Z" fill="white" fill-opacity="0.6"/>
<path d="M1258.95 1668.33L1241.48 1599.09L1231.49 1632.52L1211.53 1658.78L1221.51 1622.97L1226.5 1606.25L1229 1579.99V1551.34L1221.51 1534.63L1211.53 1513.14L1199.05 1496.43L1224.01 1501.21L1248.96 1508.37L1286.4 1532.24L1303.87 1551.34L1318.84 1575.22L1328.82 1601.48L1338.81 1627.74L1346.29 1594.32L1356.28 1615.8L1358.77 1642.07V1665.94L1353.78 1689.82L1323.83 1735.18L1331.32 1713.69L1336.31 1701.75L1338.81 1687.43L1343.8 1651.62V1637.29L1338.81 1627.74L1328.82 1654L1323.83 1625.35L1316.35 1611.03L1313.85 1603.87L1306.36 1601.48V1656.39L1298.88 1677.88L1293.89 1689.82L1288.89 1696.98L1283.9 1701.75L1276.42 1613.42L1271.42 1639.68L1266.43 1656.39L1258.95 1668.33Z" fill="white" fill-opacity="0.6"/>
<ellipse cx="1670.72" cy="1606.26" rx="9.9826" ry="9.54978" fill="white" fill-opacity="0.6"/>
<path d="M1791.04 1605.46C1790.51 1611.03 1788.01 1615.81 1783.55 1613.42C1778.03 1615.81 1778.03 1610.73 1778.03 1605.46C1778.03 1600.18 1780.53 1601.48 1783.55 1598.29C1788.01 1596.71 1790.51 1596.71 1791.04 1605.46Z" fill="white" fill-opacity="0.6"/>
<path d="M1570.9 1935.72L1578.39 1916.62V1950.05L1568.41 1993.02L1590.87 1976.31L1605.84 1950.05L1613.33 1930.95L1615.83 1897.52L1570.9 1806.8L1545.95 1739.95L1528.48 1759.05L1523.49 1785.31L1528.48 1813.96L1535.96 1835.45L1506.02 1809.19L1508.51 1830.68L1511.01 1852.16L1523.49 1868.87L1540.96 1897.52L1543.45 1883.2V1871.26L1553.43 1885.59L1560.92 1897.52L1570.9 1935.72Z" fill="#F47231" fill-opacity="0.6"/>
<path d="M1555.93 2074.2H1535.96L1528.48 2033.61L1530.97 2000.19L1538.46 1983.48L1555.93 1970.48L1548.44 2002.58V2021.67L1550.94 2050.32L1555.93 2074.2Z" fill="#F47231" fill-opacity="0.6"/>
<path d="M1645.77 1976.31L1625.8 1993.02L1623.31 2007.35V2026.45V2062.26L1638.28 2059.87L1640.78 2040.77L1643.27 2016.9L1645.77 1997.8V1976.31Z" fill="#F47231" fill-opacity="0.6"/>
<path d="M1441.13 1971.53H1431.15V1952.43L1434.85 1930.95L1441.13 1909.46L1453.61 1895.13L1451.12 1916.62V1940.5L1456.11 1964.37L1461.1 1983.47L1473.58 2024.06L1481.06 2045.54V2064.64L1456.11 2021.67L1443.63 1993.02L1441.13 1983.47V1971.53Z" fill="#F47231" fill-opacity="0.6"/>
<path d="M1366.25 1985.86L1386.22 1990.63L1373.74 1978.7L1356.27 1971.54L1321.33 1969.15L1331.31 1959.6L1348.78 1954.82H1376.24L1398.7 1966.76L1416.17 1985.86L1426.15 2004.96L1433.64 2026.45V2050.32V2069.42L1421.16 2067.03L1416.17 2040.77L1401.19 2019.28L1396.2 2009.73L1386.22 2002.57L1366.25 1985.86Z" fill="#F47231" fill-opacity="0.6"/>
<path d="M1338.8 1849.77L1273.91 1957.21L1271.42 1921.4L1281.4 1890.36L1296.37 1859.32L1316.34 1830.67L1338.8 1809.19L1363.75 1792.47L1391.21 1778.15L1416.16 1761.44L1431.14 1737.56L1446.11 1725.62L1471.07 1680.26V1718.46L1468.57 1737.56L1461.08 1756.66L1456.09 1747.11L1443.61 1761.44L1431.14 1780.54L1418.66 1835.45L1413.67 1790.09L1361.26 1816.35L1393.7 1818.74L1323.82 1849.77H1338.8Z" fill="#F47231" fill-opacity="0.6"/>
<path d="M1211.54 1658.78V1618.19L1176.6 1677.88L1164.12 1711.3L1161.62 1749.5H1166.62L1169.11 1744.73L1174.1 1737.57L1184.09 1720.85L1196.56 1706.53L1211.54 1696.98L1194.07 1730.4L1181.59 1763.83L1176.6 1802.03L1184.09 1837.84L1216.53 1768.6L1206.55 1833.06L1209.04 1866.49L1216.53 1883.2L1226.51 1897.52L1231.5 1847.39L1238.99 1825.9L1246.48 1811.58L1238.99 1859.33L1243.98 1885.59L1253.96 1904.69L1276.42 1845L1318.85 1794.86L1328.83 1770.99L1341.31 1744.73L1346.3 1720.85L1353.79 1689.82L1323.84 1735.18L1336.32 1701.75L1338.82 1692.2L1341.31 1675.49L1343.81 1649.23V1637.29L1338.82 1625.36L1328.83 1654L1323.84 1625.36L1316.36 1611.03L1313.86 1603.87L1306.37 1601.48V1656.39L1298.89 1677.88L1293.89 1689.82L1288.9 1696.98L1283.91 1701.75L1286.41 1675.49V1663.55V1651.62L1283.91 1630.13L1281.42 1620.58L1276.42 1611.03L1271.43 1639.68L1266.44 1656.39L1258.96 1668.33L1253.96 1630.13L1248.97 1611.03L1241.49 1596.71L1231.5 1632.52L1211.54 1658.78Z" fill="#F47231" fill-opacity="0.6"/>
<path d="M1780.53 1677.88L1770.55 1687.43H1730.62L1723.13 1685.04L1735.61 1668.33L1710.65 1620.58L1675.71 1587.16L1633.29 1591.93L1618.31 1603.87L1583.38 1601.48L1598.35 1608.64L1565.91 1630.13L1620.81 1615.81L1655.75 1639.68L1693.18 1634.91L1710.65 1656.39L1693.18 1682.65L1660.74 1668.33H1625.8L1578.38 1649.23L1543.44 1665.94H1560.91L1540.95 1675.49L1520.98 1692.2L1543.44 1651.62L1501.02 1668.33L1508.51 1639.68L1525.98 1613.42L1496.03 1625.36L1520.98 1587.16L1506.01 1591.93L1491.04 1589.54L1476.06 1582.38L1486.04 1577.61L1458.59 1568.06L1433.64 1556.12L1416.17 1541.79L1403.69 1517.92L1453.6 1537.02L1391.21 1482.11L1356.27 1393.77L1353.78 1307.83L1366.25 1269.63L1381.23 1255.3H1398.7L1446.11 1283.95L1501.02 1331.7L1498.52 1336.47L1560.91 1420.04L1588.37 1465.4L1615.82 1510.76L1618.31 1494.05L1610.83 1472.56L1643.27 1491.66L1628.3 1470.17L1655.75 1480.99L1683.2 1501.21L1678.21 1474.95L1698.18 1477.33L1718.14 1486.88L1715.64 1477.33L1730.62 1486.88L1743.1 1429.58L1775.54 1372.29L1842.92 1295.89L1770.55 1415.26L1743.1 1498.82L1730.62 1501.21L1748.09 1510.76L1765.56 1522.7L1775.54 1539.41L1783.03 1558.51L1802.99 1568.06L1807.98 1575.22V1587.16L1802.99 1594.32L1790.51 1587.16L1780.53 1584.77L1770.55 1594.32L1783.03 1558.51L1773.04 1565.67L1765.56 1577.61L1763.06 1591.93L1765.56 1620.58L1743.1 1599.09L1740.6 1620.58L1745.59 1642.07L1758.07 1661.17L1770.55 1673.1L1780.53 1677.88Z" fill="#F47231" fill-opacity="0.6"/>
<path d="M1788.02 1634.91L1802.99 1613.42L1807.98 1630.13V1642.07L1800.5 1649.23L1788.02 1634.91Z" fill="#F47231" fill-opacity="0.6"/>
<path d="M1793.01 1517.92L1815.47 1553.73L1832.94 1539.41L1837.93 1529.86L1840.43 1517.92L1815.47 1522.7V1517.92L1852.91 1482.11L1875.37 1439.13L1887.84 1405.71L1892.84 1381.84L1897.83 1362.74L1900.32 1338.86V1307.83V1286.34L1892.84 1274.4L1870.37 1298.28L1877.86 1295.89L1830.44 1384.22L1857.9 1372.29L1815.47 1429.58L1845.42 1415.26L1805.49 1472.56L1835.44 1463.01L1793.01 1517.92Z" fill="#F47231" fill-opacity="0.6"/>
<path d="M1453.61 1505.98L1448.62 1515.53L1396.21 1460.62L1381.23 1427.2L1371.25 1393.77L1368.75 1329.31L1371.25 1295.89L1378.74 1281.56L1391.22 1272.01L1411.18 1276.79L1431.15 1288.72L1461.09 1314.99L1516 1374.67L1555.93 1441.52L1573.4 1479.72L1583.38 1517.92L1548.44 1537.02L1520.99 1568.05L1525.98 1539.41L1491.04 1510.76L1496.03 1532.24V1556.12L1453.61 1505.98Z" fill="#292758" fill-opacity="0.6"/>
<path d="M1545.95 1491.66L1523.49 1484.5L1538.46 1501.21L1548.44 1517.92L1523.49 1510.76L1498.53 1498.82L1478.56 1482.11L1463.59 1460.62L1503.52 1472.56L1471.08 1446.3L1458.6 1431.97L1448.62 1412.87L1488.55 1429.59L1458.6 1398.55L1446.12 1381.84L1438.63 1365.13L1473.57 1389L1426.16 1310.21L1448.62 1324.54L1463.59 1341.25L1496.03 1377.06L1520.99 1417.65L1538.46 1460.62L1518.5 1451.07L1535.96 1470.17L1545.95 1491.66Z" fill="white" fill-opacity="0.6"/>
</g>
<path d="M1821.93 979.471H1844.91V1155.69H1821.93V1216.98L2044.11 1255.29V1163.35L1975.16 1148.02V1178.67L1913.87 1171.01V1102.06L1982.82 1117.38V1056.09L1913.87 1048.42V987.133L1975.16 994.794V1025.44L2044.11 1040.76V948.825L1821.93 918.179V948.825V979.471Z" fill="white" fill-opacity="0.6"/>
<path d="M1979.82 990.679L1975.74 990.168L1914.45 982.506L1909.21 981.852V1052.6L1913.35 1053.06L1978.16 1060.26V1111.57L1914.88 1097.5L1909.21 1096.24V1175.13L1913.29 1175.64L1974.58 1183.3L1979.82 1183.95V1153.84L2039.45 1167.09V1249.75L1826.59 1213.05V1160.35H1849.58V974.809H1826.59V923.528L2039.45 952.888V1034.95L1979.82 1021.7V990.679Z" stroke="#F47231" stroke-opacity="0.6" stroke-width="9.32425"/>
<path d="M1614.04 1207.09L1405.91 1212.26V1163.62L1431.93 1151.39V954.928L1405.91 959.276V867.975L1609.71 881.018L1661.74 925.31V1007.1V1025.31V1041.88V1159.27L1614.04 1207.09Z" fill="white" fill-opacity="0.6"/>
<path d="M1607.86 885.571L1657.08 927.462V1157.34L1612.06 1202.48L1410.57 1207.48V1166.57L1433.91 1155.61L1436.59 1154.35V949.422L1431.16 950.33L1410.57 953.769V872.945L1607.86 885.571Z" stroke="#F47231" stroke-opacity="0.6" stroke-width="9.32425"/>
<path d="M1505.65 1155.74V929.66H1575.02L1592.37 947.051V1138.35L1575.02 1155.74H1505.65Z" fill="#292758" fill-opacity="0.6" stroke="#F47231" stroke-opacity="0.6" stroke-width="9.32425"/>
<path d="M1182.57 1224.29L997.078 1255.29V1189.41L1020.26 1185.54V999.55L997.078 1003.42L1000.94 941.428L1178.71 918.179L1225.08 949.177V1046.05L1209.62 1061.55L1225.08 1077.05V1181.67L1182.57 1224.29Z" fill="white" fill-opacity="0.6"/>
<path d="M1220.42 951.668V1044.12L1206.32 1058.25L1203.04 1061.55L1206.32 1064.84L1220.42 1078.97V1179.74L1180.33 1219.94L1001.74 1249.78V1193.36L1021.03 1190.14L1024.93 1189.49V994.044L1019.5 994.951L1002.1 997.859L1005.36 945.551L1177.57 923.029L1220.42 951.668Z" stroke="#F47231" stroke-opacity="0.6" stroke-width="9.32425"/>
<path d="M1082.1 1049.93V964.681L1151.66 956.931L1159.39 972.43V1026.68L1151.66 1042.18L1082.1 1049.93Z" fill="#292758" fill-opacity="0.6" stroke="#F47231" stroke-opacity="0.6" stroke-width="9.32425"/>
<path d="M1082.1 1181.67V1096.42L1151.66 1088.67L1159.39 1104.17V1158.42L1151.66 1173.92L1082.1 1181.67Z" fill="#292758" fill-opacity="0.6" stroke="#F47231" stroke-opacity="0.6" stroke-width="9.32425"/>
</g>
<g filter="url(#filter2_d_110_399)">
<path d="M918.274 1936.95L974.117 2005.12L953.391 2022.11L915.18 1975.41L890.426 1995.69L923.529 2036.16L902.803 2053.15L869.7 2012.68L826.873 2047.75L809.29 2026.29L918.372 1936.95H918.274Z" fill="#F47231"/>
<path d="M991.556 2022.71L1064 2085.97L1046.37 2106.15L994.847 2061.16L975.054 2083.8L1020.63 2123.64L1003 2143.82L957.422 2103.99L937.384 2126.93L990.918 2173.68L973.286 2193.87L898.829 2128.84L991.556 2022.66V2022.71ZM1077.65 2051.34L1039.3 2052.17L1027.02 2041.47L1055.26 2031.84L1077.6 2051.39L1077.65 2051.34Z" fill="#F47231"/>
<path d="M1122.1 2293.03L1077.46 2156.1L1082.32 2164.2L1039.93 2239.25L1015.52 2225.25L1088.46 2098.14L1089.44 2098.73L1132.27 2234.19L1128.29 2228.84L1171.56 2152.32L1195.82 2166.22L1122.79 2293.47L1122.15 2293.08L1122.1 2293.03Z" fill="#F47231"/>
<path d="M1225.98 2177.8L1317.13 2208.45L1308.59 2233.89L1243.76 2212.09L1234.18 2240.57L1291.54 2259.88L1283 2285.32L1225.63 2266.01L1215.91 2294.89L1283.29 2317.54L1274.75 2342.93L1181.09 2311.45L1226.03 2177.8H1225.98Z" fill="#F47231"/>
<path d="M1345.43 2214.69L1372.88 2218.92L1355.59 2331.78L1421.11 2341.8L1417.04 2368.32L1324.06 2354.08L1345.43 2214.74V2214.69Z" fill="#F47231"/>
<path d="M1453.77 2302.31C1453.38 2292.64 1454.9 2283.35 1458.24 2274.51C1461.58 2265.67 1466.44 2257.81 1472.78 2250.84C1479.07 2243.86 1486.48 2238.31 1495.03 2234.14C1503.58 2229.97 1512.81 2227.71 1522.73 2227.31C1532.55 2226.92 1541.88 2228.49 1550.72 2231.98C1559.57 2235.47 1567.42 2240.43 1574.4 2246.86C1581.37 2253.29 1586.87 2260.81 1591 2269.31C1595.12 2277.85 1597.33 2286.94 1597.73 2296.66C1598.12 2306.63 1596.6 2316.01 1593.16 2324.85C1589.72 2333.7 1584.81 2341.5 1578.33 2348.33C1571.89 2355.16 1564.38 2360.61 1555.88 2364.64C1547.34 2368.66 1538.15 2370.87 1528.33 2371.27C1518.36 2371.66 1508.98 2370.19 1500.19 2366.8C1491.35 2363.46 1483.54 2358.6 1476.71 2352.26C1469.88 2345.92 1464.43 2338.51 1460.4 2329.96C1456.38 2321.42 1454.17 2312.18 1453.77 2302.21V2302.31ZM1482.51 2301.18C1482.75 2307.42 1484.08 2313.21 1486.53 2318.57C1488.99 2323.92 1492.28 2328.59 1496.45 2332.57C1500.63 2336.54 1505.44 2339.59 1510.79 2341.7C1516.2 2343.81 1521.99 2344.7 1528.23 2344.5C1534.22 2344.25 1539.77 2342.88 1544.83 2340.42C1549.89 2337.92 1554.26 2334.53 1557.94 2330.21C1561.63 2325.93 1564.43 2321.02 1566.39 2315.52C1568.36 2310.02 1569.19 2304.13 1568.95 2297.89C1568.7 2291.51 1567.37 2285.61 1564.92 2280.21C1562.46 2274.81 1559.22 2270.14 1555.19 2266.11C1551.17 2262.14 1546.45 2259.09 1541.15 2256.98C1535.84 2254.87 1530.1 2253.93 1523.96 2254.18C1517.82 2254.42 1512.22 2255.8 1507.06 2258.3C1501.91 2260.81 1497.44 2264.2 1493.65 2268.52C1489.87 2272.84 1486.97 2277.75 1485.01 2283.3C1483.05 2288.9 1482.21 2294.85 1482.46 2301.23L1482.51 2301.18Z" fill="#F47231"/>
<path d="M1776.95 2330.75L1648.42 2265.77L1657.55 2268.03L1680.78 2351.03L1653.62 2358.45L1615.02 2217.1L1616.1 2216.8L1742.32 2282.03L1735.69 2281.04L1711.97 2196.37L1738.93 2189L1777.59 2330.55L1776.85 2330.75H1776.95Z" fill="#F47231"/>
<path d="M1911.41 2138.81C1905.32 2139.01 1899.37 2139.74 1893.63 2140.92C1887.88 2142.1 1882.92 2143.97 1878.75 2146.42C1873.59 2149.52 1870.15 2152.96 1868.43 2156.79C1866.71 2160.62 1867.11 2164.64 1869.56 2168.82C1871.28 2171.67 1873.88 2173.53 1877.52 2174.47C1881.15 2175.4 1885.23 2175.65 1889.8 2175.3C1894.41 2174.91 1899.08 2174.32 1903.74 2173.44C1908.02 2172.65 1912.44 2172.16 1917.01 2171.91C1921.52 2171.67 1925.99 2172.06 1930.31 2173.14C1934.64 2174.17 1938.86 2176.24 1942.89 2179.28C1946.92 2182.33 1950.65 2186.75 1954.14 2192.54C1957.77 2198.68 1959.59 2205.36 1959.54 2212.48C1959.54 2219.65 1957.38 2226.68 1953.15 2233.55C1948.93 2240.43 1942.3 2246.57 1933.31 2251.92C1928.69 2254.67 1923.73 2256.98 1918.38 2258.9C1913.03 2260.81 1907.53 2262.19 1901.78 2262.97C1896.03 2263.81 1890.14 2264 1884.1 2263.56L1883.56 2238.71C1887.63 2239.1 1891.86 2239.1 1896.13 2238.71C1900.45 2238.32 1904.53 2237.53 1908.46 2236.4C1912.39 2235.27 1915.78 2233.85 1918.63 2232.13C1921.47 2230.46 1924.13 2228.3 1926.53 2225.74C1928.94 2223.19 1930.51 2220.34 1931.3 2217.25C1932.03 2214.15 1931.35 2210.81 1929.28 2207.33C1927.86 2204.92 1925.75 2203.2 1923 2202.17C1920.25 2201.14 1917 2200.6 1913.37 2200.55C1909.69 2200.55 1905.91 2200.84 1902.03 2201.53C1897.46 2202.32 1892.6 2202.95 1887.54 2203.45C1882.48 2203.94 1877.42 2203.84 1872.36 2203.25C1867.3 2202.61 1862.54 2200.94 1857.97 2198.19C1853.4 2195.44 1849.47 2191.22 1845.99 2185.37C1841.81 2178.35 1839.75 2171.32 1839.8 2164.3C1839.85 2157.28 1841.86 2150.6 1845.74 2144.16C1849.67 2137.73 1855.22 2132.18 1862.49 2127.37C1872.26 2121.57 1880.86 2117.99 1888.32 2116.66C1895.79 2115.33 1902.86 2114.84 1909.59 2115.14L1911.41 2138.81Z" fill="#F47231"/>
<path d="M1999.18 2141.86C2002.12 2145.25 2005.95 2147.6 2010.62 2148.93C2015.33 2150.26 2020.2 2150.45 2025.16 2149.52C2030.17 2148.59 2034.64 2146.38 2038.61 2142.94C2042.94 2139.16 2045.98 2134.88 2047.7 2130.02C2049.42 2125.16 2049.91 2120.34 2049.22 2115.53C2048.53 2110.72 2046.72 2106.64 2043.77 2103.25L1985.57 2036.06L2006.25 2018.14L2064.79 2085.77C2071.57 2093.58 2075.65 2102.17 2076.97 2111.55C2078.35 2120.93 2077.22 2130.17 2073.63 2139.3C2070.05 2148.44 2064.2 2156.44 2056.2 2163.37C2048.29 2170.24 2039.6 2174.76 2030.12 2176.97C2020.64 2179.18 2011.36 2178.94 2002.27 2176.29C1993.18 2173.63 1985.28 2168.33 1978.5 2160.52L1919.95 2092.89L1940.97 2074.72L1999.18 2141.91V2141.86Z" fill="#F47231"/>
<path d="M2053.15 1961.9C2060.42 1952.81 2068.08 1946.38 2076.14 1942.5C2084.19 1938.67 2092.3 1937.29 2100.5 1938.42C2108.65 1939.55 2116.56 1943.19 2124.12 1949.23C2128.59 1952.81 2132.57 1957.09 2136.06 1962.09C2139.54 1967.1 2141.9 1972.51 2143.23 1978.4C2144.55 1984.29 2144.36 1990.58 2142.69 1997.36C2140.97 2004.09 2137.24 2011.06 2131.49 2018.23L2119.06 2033.8L2153.89 2061.7L2136.55 2083.41L2026.48 1995.3L2053.2 1961.95L2053.15 1961.9ZM2110.27 2001.48C2112.93 1998.19 2114.55 1995 2115.14 1991.91C2115.72 1988.81 2115.68 1985.92 2114.94 1983.26C2114.2 1980.61 2113.07 1978.25 2111.65 1976.19C2110.22 1974.13 2108.75 1972.56 2107.38 1971.43C2106.29 1970.54 2104.67 1969.56 2102.56 1968.43C2100.45 1967.3 2097.99 1966.52 2095.2 1966.12C2092.44 1965.68 2089.5 1966.12 2086.4 1967.3C2083.31 1968.53 2080.26 1970.98 2077.22 1974.77L2064.74 1990.34L2097.95 2016.91L2110.27 2001.48Z" fill="#F47231"/>
<path d="M2282.81 1629.05L2278.19 1661.96L2256.78 1658.96L2261.4 1626.05L2282.81 1629.05Z" fill="#292758"/>
<path d="M1495.61 2162.44C1487.07 2162.44 1478.52 2162.29 1469.97 2161.95C1297.19 2155.27 1137.32 2081.69 1019.84 1954.73C902.412 1827.82 841.363 1662.75 848.042 1489.96C854.722 1317.18 928.295 1157.31 1055.25 1039.83C1182.17 922.344 1347.38 861.344 1520.02 868.023C1692.8 874.703 1852.67 948.276 1970.15 1075.24C2087.58 1202.15 2148.63 1367.22 2141.95 1540.01C2135.27 1712.79 2061.7 1872.66 1934.74 1990.14C1814.12 2101.78 1659.06 2162.44 1495.61 2162.44ZM1494.38 903.042C1339.92 903.042 1193.36 960.359 1079.32 1065.86C959.384 1176.9 889.838 1327.98 883.503 1491.29C877.167 1654.64 934.827 1810.63 1045.87 1930.62C1156.92 2050.55 1308 2120.1 1471.3 2126.44C1634.75 2132.62 1790.64 2075.11 1910.62 1964.06C2030.56 1853.02 2100.11 1701.94 2106.44 1538.63C2112.78 1375.28 2055.12 1219.29 1944.07 1099.3C1833.02 979.366 1681.95 909.82 1518.65 903.484C1510.54 903.189 1502.44 902.993 1494.38 902.993V903.042Z" fill="#292758"/>
<path d="M1495.47 2475C1482.99 2475 1470.47 2474.75 1457.89 2474.26C928.936 2453.83 515.248 2006.84 535.729 1477.88C556.209 948.913 1003.34 535.614 1532.11 555.702C2061.06 576.183 2474.75 1023.17 2454.27 1552.09C2434.28 2068.48 2007.82 2475 1495.47 2475ZM1494.53 590.475C1001.08 590.475 590.442 981.967 571.189 1479.25C551.494 1988.62 949.859 2419.11 1459.27 2438.8C1968.63 2458.74 2399.12 2060.13 2418.81 1550.71C2438.51 1041.35 2040.14 610.907 1530.73 591.212C1518.65 590.721 1506.52 590.525 1494.53 590.525V590.475Z" fill="#292758"/>
<path d="M710.869 1661.91L705.516 1629.1L726.831 1625.61L732.185 1658.42L710.869 1661.91Z" fill="#292758"/>
<path d="M648.454 1476.35L655.527 1395.17L680.231 1397.33L675.369 1452.93L704.837 1455.48L709.012 1407.3L733.716 1409.46L729.541 1457.64L780.571 1462.06L778.361 1487.65L648.454 1476.35Z" fill="#292758"/>
<path d="M650.017 1268.21L667.01 1299.4L663.425 1314.03L643.484 1294.88L650.017 1268.21ZM662.983 1351.16L684.249 1264.77L708.315 1270.71L693.188 1332.15L720.201 1338.79L733.56 1284.42L757.625 1290.36L744.266 1344.73L771.623 1351.46L787.339 1287.61L811.405 1293.55L789.55 1382.35L662.934 1351.21L662.983 1351.16Z" fill="#292758"/>
<path d="M872.458 1164.53L750.213 1217.47L757.236 1212.31L830.023 1244.88L819.218 1268.6L695.844 1212.41L696.286 1211.43L817.352 1160.25L812.735 1164.38L738.524 1131.13L749.231 1107.6L872.753 1163.89L872.458 1164.53Z" fill="#292758"/>
<path d="M779.19 1058.49L830.367 985.699L850.651 999.992L814.257 1051.71L836.997 1067.72L869.216 1021.95L889.5 1036.24L857.281 1082.01L880.316 1098.22L918.133 1044.44L938.418 1058.73L885.816 1133.53L779.141 1058.54L779.19 1058.49Z" fill="#292758"/>
<path d="M862.391 947.883L880.317 929.465L956.002 1003.09L998.78 959.179L1016.56 976.467L955.904 1038.79L862.44 947.833L862.391 947.883Z" fill="#292758"/>
<path d="M988.663 912.765C983.408 905.496 979.872 897.589 977.957 889.043C976.041 880.546 975.746 871.951 977.073 863.405C978.399 854.81 981.296 846.755 985.717 839.191C990.186 831.628 996.129 825.145 1003.64 819.791C1011.06 814.487 1019.02 810.951 1027.61 809.133C1036.21 807.316 1044.85 807.12 1053.49 808.544C1062.14 809.968 1070.24 812.915 1077.76 817.434C1085.27 821.952 1091.66 827.797 1096.91 835.115C1102.26 842.58 1105.9 850.635 1107.76 859.181C1109.63 867.727 1109.83 876.273 1108.31 884.868C1106.83 893.414 1103.79 901.42 1099.32 908.934C1094.8 916.399 1088.86 922.784 1081.44 928.089C1073.97 933.491 1065.97 937.126 1057.42 939.041C1048.88 940.957 1040.38 941.202 1031.93 939.827C1023.44 938.452 1015.48 935.505 1007.97 930.937C1000.5 926.419 994.066 920.427 988.713 912.912L988.663 912.765ZM1010.22 897.245C1013.61 901.96 1017.59 905.742 1022.21 908.59C1026.83 911.488 1031.74 913.354 1036.99 914.337C1042.25 915.27 1047.5 915.172 1052.71 914.042C1057.91 912.912 1062.87 910.653 1067.59 907.264C1072.11 904.023 1075.69 900.143 1078.35 895.624C1081 891.105 1082.62 886.243 1083.26 881.086C1083.9 875.929 1083.55 870.674 1082.27 865.419C1081 860.163 1078.64 855.203 1075.25 850.488C1071.81 845.675 1067.79 841.844 1063.12 838.897C1058.45 835.95 1053.54 833.985 1048.44 833.003C1043.28 831.972 1038.07 832.021 1032.92 833.101C1027.76 834.231 1022.85 836.441 1018.23 839.732C1013.61 843.072 1009.98 846.952 1007.28 851.519C1004.58 856.087 1002.86 860.998 1002.12 866.204C1001.38 871.46 1001.68 876.764 1003 882.019C1004.33 887.324 1006.74 892.382 1010.18 897.147L1010.22 897.245Z" fill="#292758"/>
<path d="M1266.35 833.642L1139.88 791.748L1148.57 792.583L1181.19 865.37L1157.37 875.881L1102.75 751.817L1103.73 751.375L1228.14 793.761H1221.95L1188.7 719.549L1212.37 709.137L1267.09 833.348L1266.45 833.642H1266.35Z" fill="#292758"/>
<path d="M1405.54 697.153C1400.23 695.286 1394.88 693.862 1389.48 692.929C1384.12 691.996 1379.26 691.898 1374.79 692.585C1369.29 693.469 1365.16 695.286 1362.37 697.988C1359.57 700.738 1358.53 704.274 1359.22 708.744C1359.71 711.789 1361.33 714.294 1364.13 716.307C1366.88 718.321 1370.32 719.942 1374.45 721.219C1378.57 722.447 1382.75 723.527 1387.07 724.411C1391 725.197 1394.98 726.278 1399 727.604C1402.98 728.93 1406.67 730.796 1410.06 733.203C1413.44 735.609 1416.34 738.753 1418.8 742.731C1421.2 746.709 1422.92 751.768 1423.91 757.957C1424.94 764.489 1424.25 770.825 1421.74 776.964C1419.24 783.103 1415.02 788.408 1409.02 792.926C1403.03 797.396 1395.27 800.441 1385.74 801.963C1380.83 802.749 1375.77 803.044 1370.52 802.896C1365.26 802.7 1360.06 802.012 1354.85 800.735C1349.6 799.458 1344.49 797.641 1339.43 795.234L1347.43 773.673C1350.82 775.392 1354.41 776.817 1358.24 777.946C1362.07 779.076 1365.85 779.813 1369.63 780.156C1373.42 780.5 1376.8 780.402 1379.85 779.96C1382.9 779.469 1385.89 778.536 1388.84 777.16C1391.78 775.785 1394.14 773.87 1395.81 771.463C1397.53 769.056 1398.07 765.962 1397.48 762.23C1397.09 759.676 1395.86 757.465 1393.8 755.648C1391.78 753.831 1389.18 752.259 1386.04 750.982C1382.9 749.705 1379.56 748.674 1375.97 747.937C1371.75 747.053 1367.38 745.973 1362.86 744.647C1358.34 743.32 1354.02 741.552 1349.89 739.293C1345.76 737.034 1342.23 733.94 1339.23 730.059C1336.29 726.179 1334.32 721.121 1333.29 714.932C1332.11 707.467 1332.7 700.738 1335.16 694.697C1337.61 688.656 1341.59 683.597 1347.14 679.422C1352.69 675.248 1359.42 672.35 1367.28 670.729C1377.64 669.059 1386.28 668.912 1393.16 670.336C1400.04 671.711 1406.27 673.725 1411.97 676.279L1405.49 697.251L1405.54 697.153Z" fill="#292758"/>
<path d="M1439.92 791.357L1498.21 655.555H1499.64L1558.97 790.865L1529.2 790.964L1491.29 695.78L1509.85 682.912L1465.26 791.16L1439.92 791.258V791.357ZM1479.94 744.059L1519.09 743.912L1528.22 765.473L1472.04 765.67L1479.94 744.01V744.059Z" fill="#292758"/>
<path d="M1592.42 665.328L1617.91 668.373L1602.39 797.839L1576.85 794.794L1592.42 665.328Z" fill="#292758"/>
<path d="M1746.93 836.59L1674.88 724.511L1681.12 730.601L1660.79 807.711L1635.64 800.884L1671.1 670.043L1672.13 670.338L1742.22 781.484L1737.41 777.604L1758.18 698.971L1783.18 705.749L1747.67 836.787L1746.98 836.59H1746.93Z" fill="#292758"/>
<path d="M1827.53 723.53L1906.99 761.102L1896.38 783.498L1867.7 769.943L1822.57 865.421L1799.33 854.42L1844.47 758.941L1816.92 745.926L1827.53 723.48V723.53Z" fill="#292758"/>
<path d="M1945.26 783.055L2018.98 832.857L2005.08 853.387L1952.67 817.975L1937.1 841.059L1983.52 872.394L1969.62 892.924L1923.25 861.589L1907.49 884.918L1961.96 921.705L1948.06 942.284L1872.27 891.107L1945.26 783.055Z" fill="#292758"/>
<path d="M1995.69 916.547L2020.89 938.354L2006.74 954.709L1981.55 932.951L1995.69 916.596V916.547Z" fill="#292758"/>
<path d="M2009.35 993.902L2112.53 905.742L2112.63 905.889L2081.54 1027.74L2076.29 1017.77L2199.52 1007.61L2199.76 1007.9L2096.57 1096.06L2079.87 1076.51L2139.01 1025.97L2129.92 1035.8L2053.6 1043.02L2053.35 1042.72L2071.57 967.479L2083.75 962.911L2025.41 1012.76L2009.3 993.902H2009.35Z" fill="#292758"/>
<path d="M2106.84 1112.07L2253.89 1097.73L2254.57 1098.96L2164.6 1216.19L2150.16 1190.16L2215.28 1111.09L2235.47 1121.16L2119.12 1134.27L2106.79 1112.12L2106.84 1112.07ZM2167.54 1124.35L2186.55 1158.58L2172.06 1176.95L2144.8 1127.84L2167.59 1124.3L2167.54 1124.35Z" fill="#292758"/>
<path d="M2307.22 1227.89C2309.93 1235.55 2311.35 1242.77 2311.5 1249.45C2311.65 1256.18 2310.66 1262.17 2308.45 1267.52C2306.24 1272.87 2303 1277.49 2298.68 1281.37C2294.36 1285.25 2289 1288.35 2282.62 1290.56C2277.61 1292.32 2272.3 1293.31 2266.75 1293.6C2261.2 1293.9 2255.8 1293.01 2250.45 1291.05C2245.1 1289.08 2240.23 1285.79 2235.76 1281.08C2231.29 1276.41 2227.61 1269.93 2224.71 1261.68L2218.62 1244.29L2179.48 1257.99L2170.98 1233.73L2294.06 1190.56L2307.13 1227.84L2307.22 1227.89ZM2241.12 1281.32L2204.33 1328.42L2194.41 1300.13L2230.31 1252.59L2241.12 1281.27V1281.32ZM2248.19 1253.33C2249.47 1257.01 2251.19 1259.86 2253.25 1261.87C2255.36 1263.89 2257.57 1265.26 2259.98 1266C2262.33 1266.74 2264.69 1267.03 2266.95 1266.93C2269.21 1266.83 2271.27 1266.44 2273.04 1265.85C2274.37 1265.36 2276.04 1264.57 2277.95 1263.49C2279.87 1262.36 2281.69 1260.84 2283.36 1258.88C2285.03 1256.91 2286.15 1254.41 2286.74 1251.41C2287.33 1248.37 2286.84 1244.78 2285.37 1240.51L2279.28 1223.12L2242.15 1236.14L2248.19 1253.38V1253.33Z" fill="#292758"/>
<path d="M2334.77 1321.45L2340.17 1346.55L2212.67 1374.05L2207.27 1348.95L2334.77 1321.45Z" fill="#292758"/>
<path d="M2349.4 1395.17L2357.41 1483.77L2332.7 1485.98L2327.01 1422.97L2299.31 1425.47L2304.37 1481.22L2279.66 1483.48L2274.6 1427.73L2246.56 1430.28L2252.45 1495.75L2227.75 1498.01L2219.55 1406.96L2349.45 1395.22L2349.4 1395.17Z" fill="#292758"/>
<path d="M1970 1437.74L1913.05 1476.99L1901.93 1564.67L1879.71 1648.41L1842.2 1732.16L1793.58 1808.06L1732.46 1873.48L1660.23 1932.37L1575.49 1982.09L1485.2 2023.97L1390.74 1980.78L1303.23 1927.13L1229.6 1865.63L1168.48 1797.59L1119.86 1721.69L1085.14 1639.25L1064.3 1559.43L1055.96 1476.99L1000.4 1437.74L1013.9 1120L1112.92 1070.03L1172.65 1054.33L1232.38 1042.55L1350.46 1025.54L1471.31 1019L1599.11 1024.23L1722.74 1039.94L1849.15 1068.72L1970 1112V1437.74Z" fill="#292758" fill-opacity="0.97"/>
<path d="M1950.63 1421.82L1893.68 1400.88L1892.29 1480.7L1889.51 1521.27L1883.95 1559.21L1875.62 1599.78L1863.12 1640.34L1845.06 1683.53L1825.61 1725.4L1803.38 1762.04L1776.99 1797.37L1717.26 1861.49L1651.97 1913.83L1615.85 1937.38L1576.96 1958.32L1495 1996.65L1450.55 1977.95L1411.66 1958.32L1389.43 1946.54L1368.59 1933.46L1329.7 1908.6L1293.58 1881.12L1260.24 1852.33L1229.68 1819.62L1215.79 1803.91L1201.9 1786.9L1189.4 1768.58L1178.28 1750.26L1156.06 1713.62L1139.39 1675.67L1124.11 1636.42L1103.27 1559.21L1096.33 1480.7L1093.55 1400.88L1037.98 1420.51V1127L1165.78 1088.14L1219.96 1076.36L1274.13 1065.79L1375.54 1052.8L1479.72 1048.88L1593.63 1051.5L1699.2 1063.27L1811.72 1085.52L1865.89 1099.91L1920.07 1118.23L1949 1128L1950.63 1266.1V1421.82Z" fill="white"/>
<path d="M1933.96 1137.86V1399.57L1879.79 1379.94L1825.61 1364.24L1713.09 1339.38L1604.74 1324.98L1493.62 1321.06L1379.71 1324.98L1269.97 1339.38L1160.23 1364.24L1106.05 1381.25L1053.27 1399.57V1139.17L1157.45 1106.46L1268.58 1081.59L1379.71 1067.2L1496.39 1063.27L1607.52 1067.2L1715.87 1081.59L1827 1106.46L1933.96 1137.86Z" fill="#292758" fill-opacity="0.97"/>
<path d="M1431.1 2077.4L1414.44 2063.01L1429.72 2056.46L1443.61 2049.92L1474.17 2038.14L1456.11 2034.22L1438.05 2031.6L1400.54 2026.37L1392.21 2027.67L1386.65 2030.29L1372.76 2035.53L1357.48 2039.45L1342.2 2040.76L1326.92 2039.45L1313.03 2036.83L1290.8 2027.67L1307.47 2021.13L1325.53 2017.21H1364.43L1325.53 2004.12L1306.08 2005.43L1286.64 2006.74L1265.8 2005.43L1246.35 1998.89L1229.68 1991.04L1215.79 1980.57L1236.63 1977.95H1257.47L1296.36 1991.04L1263.02 1971.41L1254.69 1966.17L1244.96 1963.56L1222.74 1962.25L1211.62 1960.94L1200.51 1958.32L1181.06 1947.85L1165.78 1936.08L1153.28 1924.3L1175.51 1925.61L1196.34 1930.84L1229.68 1947.85L1200.51 1922.99L1192.18 1917.76L1182.45 1913.83L1161.62 1908.6L1151.89 1905.98L1143.56 1902.05L1135.22 1896.82L1128.28 1890.28L1115.78 1878.5L1108.83 1866.72L1126.89 1870.65L1144.95 1877.19L1160.23 1886.35L1175.51 1898.13L1154.67 1873.27L1147.73 1866.72L1140.78 1862.8L1121.33 1856.25L1104.66 1847.09L1097.72 1841.86L1092.16 1836.63L1086.6 1828.77L1081.05 1822.23L1074.1 1809.15L1092.16 1814.38L1107.44 1822.23L1133.83 1845.79L1115.78 1818.31L1110.22 1810.46L1101.89 1806.53L1085.22 1798.68L1072.71 1788.21L1062.99 1776.43L1056.04 1763.35L1051.88 1750.26L1067.16 1758.11L1081.05 1768.58L1093.55 1780.36L1103.27 1793.44L1090.77 1765.96L1079.66 1752.88L1065.77 1743.72L1054.66 1731.94L1046.32 1718.86L1040.76 1705.77L1039.38 1691.38L1051.88 1700.54L1058.82 1707.08L1062.99 1712.31L1081.05 1738.49L1072.71 1711.01L1065.77 1697.92L1060.21 1683.53V1658.66L1061.6 1645.58L1065.77 1633.8L1075.49 1657.35L1078.27 1669.13L1079.66 1682.22L1078.27 1707.08L1079.66 1720.17L1083.83 1731.94L1086.6 1707.08L1092.16 1695.3L1100.5 1684.83L1103.27 1696.61V1708.39L1099.11 1733.25L1092.16 1752.88L1097.72 1768.58L1100.5 1776.43L1104.66 1784.28V1758.11V1751.57L1107.44 1743.72L1115.78 1731.94L1119.94 1743.72L1122.72 1756.8V1771.2L1119.94 1784.28L1117.17 1790.83V1797.37V1805.22L1119.94 1811.76L1135.22 1835.32L1131.06 1820.92L1128.28 1805.22L1129.67 1789.52L1135.22 1775.12L1142.17 1785.59L1147.73 1798.68L1149.11 1814.38V1828.77L1147.73 1843.17L1149.11 1851.02L1150.5 1857.56L1171.34 1882.43L1164.4 1868.03L1160.23 1851.02V1835.32L1161.62 1828.77L1164.4 1820.92L1172.73 1831.39L1178.29 1843.17L1182.45 1857.56V1871.96L1183.84 1885.04L1185.23 1892.89L1186.62 1898.13L1192.18 1904.67L1196.34 1911.21L1210.24 1921.68L1201.9 1907.29L1197.73 1899.44L1196.34 1891.59L1194.96 1875.88L1197.73 1860.18L1207.46 1870.65L1215.79 1883.73L1219.96 1895.51L1224.13 1908.6L1225.52 1924.3L1226.91 1932.15L1231.07 1938.69L1243.57 1949.16L1257.47 1958.32L1246.35 1945.24L1238.02 1930.84L1235.24 1915.14L1236.63 1899.44L1247.74 1908.6L1256.08 1919.06L1264.41 1932.15L1268.58 1945.24L1274.13 1960.94L1276.91 1968.79L1283.86 1974.02L1311.64 1989.73L1299.14 1977.95L1289.42 1964.86L1282.47 1950.47L1281.08 1933.46L1306.08 1951.78L1315.81 1963.56L1322.75 1975.33L1331.09 1988.42L1340.81 2000.2L1357.48 2006.74L1375.54 2011.97L1358.87 2002.81L1344.98 1991.04L1336.64 1976.64L1333.87 1970.1L1331.09 1962.25L1350.54 1970.1L1368.59 1980.57L1383.87 1994.96L1394.99 2010.66L1404.71 2017.21L1410.27 2019.82L1417.21 2021.13L1443.61 2025.06L1496.39 2034.22L1585.3 2019.82L1595.02 2013.28L1601.97 2005.43L1617.25 1987.11L1626.97 1979.26L1636.69 1972.72L1661.7 1962.25L1660.31 1971.41L1656.14 1979.26L1646.42 1993.65L1632.53 2002.81L1617.25 2011.97L1639.47 2005.43L1650.58 2001.5L1657.53 1994.96L1668.64 1977.95L1686.7 1951.78L1699.2 1942.62L1713.09 1934.77L1710.32 1951.78L1704.76 1966.17L1692.26 1977.95L1679.76 1989.73L1704.76 1977.95L1715.87 1970.1L1721.43 1951.78L1733.93 1922.99L1756.16 1899.44L1758.93 1916.45L1756.16 1930.84L1749.21 1943.93L1738.1 1957.01L1767.27 1934.77L1768.66 1922.99V1911.21L1774.21 1891.59L1782.55 1874.57L1795.05 1860.18L1797.83 1885.04L1792.27 1904.67L1782.55 1922.99L1797.83 1911.21L1807.55 1895.51L1810.33 1875.88L1811.72 1854.95L1818.67 1836.63L1829.78 1820.92L1833.95 1836.63V1851.02L1829.78 1866.72L1824.22 1882.43L1835.34 1869.34L1845.06 1853.64V1835.32L1842.28 1820.92L1845.06 1803.91L1850.62 1789.52L1857.56 1776.43L1864.51 1798.68L1860.34 1835.32L1870.06 1817L1875.62 1806.53V1798.68L1874.23 1789.52L1872.84 1781.67L1871.45 1775.12L1870.06 1759.42L1872.84 1743.72L1878.4 1730.63L1885.34 1741.1L1888.12 1751.57L1889.51 1764.66V1784.28L1897.85 1762.04L1899.23 1750.26L1895.07 1734.56L1890.9 1725.4L1889.51 1712.31L1890.9 1699.23L1893.68 1686.14L1902.01 1693.99L1906.18 1703.15L1910.35 1730.63L1914.68 1714.93V1703.15V1696.61L1913.13 1688.76L1911.74 1676.98L1913.13 1670.44L1918.68 1653.43L1927.02 1635.11L1933.96 1652.12L1935.35 1670.44L1931.18 1687.45L1924.24 1703.15L1920.07 1713.62L1914.68 1735.87L1931.18 1709.7L1943.69 1699.23L1953.41 1691.38L1952.02 1707.08L1946.46 1721.47L1927.02 1742.41L1911.74 1754.19L1903.4 1764.66L1889.51 1793.44L1911.74 1767.27L1927.02 1758.11L1942.3 1751.57L1929.07 1777.74L1917.29 1790.83L1906.18 1798.68L1889.51 1806.53L1881.18 1813.07L1875.62 1820.92L1860.34 1844.48L1886.73 1823.54L1902.01 1814.38L1920.07 1809.15L1902.01 1836.63L1886.73 1848.4L1870.06 1856.25L1850.62 1864.11L1843.67 1868.03L1839.5 1873.27L1827 1886.35L1817.28 1899.44L1847.84 1877.19L1865.9 1870.65L1885.34 1866.72L1874.23 1882.43L1860.34 1895.51L1853.39 1900.75L1843.67 1904.67L1824.22 1909.91L1810.33 1913.83L1800.61 1917.76L1789.5 1925.61L1782.55 1930.84L1775.6 1937.38L1763.1 1949.16L1796.44 1930.84L1817.28 1925.61H1838.11L1824.22 1940L1806.16 1951.78L1788.11 1959.63L1770.05 1962.25L1746.43 1963.56L1731.15 1971.41L1715.87 1979.26L1697.81 1991.04L1718.65 1983.18L1738.1 1979.26L1758.93 1977.95L1778.38 1980.57L1751.99 1996.27L1738.1 2002.81L1722.82 2006.74H1706.15L1692.26 2005.43L1679.76 2004.12H1670.03L1650.58 2009.35L1629.75 2017.21H1647.81H1667.25L1683.92 2021.13L1701.98 2027.67L1688.09 2032.91L1675.59 2038.14L1661.7 2039.45H1649.19L1635.3 2038.14L1621.41 2035.53L1608.91 2030.29L1595.02 2026.37L1556.12 2031.6L1520.01 2038.14L1550.57 2049.92L1579.74 2064.31L1560.29 2076.09L1546.4 2065.62L1531.12 2056.46L1496.39 2043.38L1460.28 2057.77L1445 2066.93L1431.1 2077.4Z" fill="#292758" fill-opacity="0.97"/>
<path d="M1875.61 1393.03L1872.83 1491.17L1867.27 1544.82L1854.77 1595.85L1840.88 1641.65L1822.82 1684.83L1801.99 1726.71L1775.59 1764.65L1746.42 1801.29L1731.14 1818.3L1715.86 1834.01L1682.52 1864.1L1647.79 1891.58L1610.29 1916.45L1571.39 1938.69L1532.5 1958.32L1511.66 1967.48L1492.21 1974.02L1442.21 1953.09L1394.98 1929.53L1351.91 1902.05L1313.02 1873.26L1276.9 1841.86L1242.17 1806.53L1210.22 1767.27L1183.83 1728.01L1164.38 1690.07L1146.33 1649.5L1132.43 1607.63L1121.32 1564.45L1114.38 1521.26L1110.21 1479.39L1108.82 1391.72L1153.27 1378.63L1175.5 1373.4L1197.72 1368.16L1243.56 1357.69L1289.4 1349.84L1314.41 1345.92L1339.41 1341.99L1372.75 1338.07L1315.8 1368.16L1293.57 1383.87L1271.35 1402.19L1236.62 1441.44L1210.22 1483.32L1193.56 1523.88L1183.83 1565.75L1179.66 1607.63L1181.05 1649.5L1190.78 1695.3L1210.22 1741.1L1238.01 1782.97L1272.73 1822.23L1317.19 1856.25L1369.97 1885.04L1428.31 1902.05L1490.82 1907.29L1518.61 1905.98L1546.39 1903.36L1572.78 1898.13L1599.18 1890.27L1651.96 1866.72L1697.8 1834.01L1721.42 1813.07L1742.25 1789.52L1760.31 1764.65L1775.59 1737.17L1786.71 1712.31L1795.04 1684.83L1800.6 1657.35L1804.76 1628.56L1803.38 1585.38L1796.43 1540.89L1782.54 1500.33L1761.7 1461.07L1733.92 1423.12L1700.58 1390.41L1658.91 1361.62L1611.68 1338.07L1638.07 1340.68L1686.69 1347.23L1735.31 1356.39L1758.92 1360.31L1782.54 1366.85L1829.77 1378.63L1875.61 1393.03Z" fill="#F47231"/>
<g filter="url(#filter3_d_110_399)">
<path d="M1272.87 1597.04L1266.19 1568.28L1264.52 1589.05L1256.17 1608.22L1241.14 1643.37L1236.13 1660.95L1232.79 1680.12V1700.89L1224.12 1737.17L1215.79 1718.85L1203.29 1684.83L1196.34 1659.35L1193.56 1641.77L1182.45 1579.46L1179.67 1614.17L1181.06 1648.19L1183.84 1667.82L1188.01 1686.14L1190.78 1696.61L1196.34 1709.69L1207.45 1735.87L1210.23 1741.1L1221.35 1758.11L1229.68 1771.2L1236.63 1781.66L1246.35 1793.44L1260.24 1809.14L1272.74 1822.23L1296.36 1840.55L1315.8 1856.25L1340.81 1869.34L1368.59 1885.04L1399.15 1894.2L1428.32 1902.05L1460.27 1904.67L1490.83 1907.29L1518.62 1905.98L1547.79 1903.36L1576.84 1897.41L1599.18 1890.27L1607.52 1886.35L1638.08 1873.26L1651.97 1866.72L1668.64 1854.94L1696.42 1835.32L1720.04 1814.38L1742.26 1789.52L1760.32 1764.65L1775.6 1737.17L1789.49 1705.77L1797.83 1675.33L1803.38 1642.96L1804.77 1625.95L1803.38 1601.83L1795.05 1633.78L1789.49 1662.54L1783.94 1686.14L1775.6 1708.39L1765.88 1731.94L1753.38 1754.19L1739.48 1773.81L1725.59 1790.82L1713.09 1803.91L1696.42 1820.92L1676.97 1834.01L1661.69 1845.78L1626.94 1864.1L1589.46 1878.5L1591.87 1855.87L1593.54 1831.9L1600.22 1809.53L1608.57 1787.17L1615.25 1796.75L1620.26 1750.42L1628.61 1760L1630.28 1750.42L1628.61 1737.64L1621.93 1715.27L1616.92 1692.9L1618.59 1681.72L1626.94 1672.13L1640.3 1676.92L1646.98 1678.52L1655.33 1680.12H1665.36L1675.38 1675.33L1683.73 1670.53L1688.74 1662.54L1695.42 1656.15L1703.77 1652.96L1708.78 1641.77L1710.45 1633.78L1707.11 1624.2L1697.09 1614.61L1702.1 1605.02L1703.77 1593.84L1700.43 1577.86L1702.1 1563.48L1705.44 1555.5L1712.12 1545.91L1722.14 1534.72L1727.15 1521.94L1728.82 1507.56L1737.17 1497.98L1743.85 1486.79L1755.54 1462.83L1762.22 1437.26L1767.23 1413.3V1389.33L1768.9 1368.56L1763.89 1346.19L1760.55 1339.8L1752.2 1333.41L1742.18 1336.61L1730.49 1343L1712.12 1357.38L1693.75 1371.76L1675.38 1387.73L1653.66 1405.31L1633.62 1426.08L1616.92 1445.25L1600.22 1469.22L1565.15 1470.82L1551.79 1448.45L1535.08 1426.08L1516.71 1405.31L1508.36 1395.72L1498.34 1387.73L1479.97 1368.56L1456.59 1349.39L1431.53 1335.01L1418.17 1330.21L1401.47 1331.81L1396.46 1335.01L1389.78 1341.4L1383.1 1357.38L1378.09 1374.95L1376.42 1392.53V1408.5L1378.09 1426.08L1384.77 1459.63L1391.45 1478.8L1394.79 1486.79L1399.8 1493.18L1408.15 1509.16L1411.49 1518.75L1414.83 1526.74L1416.5 1536.32L1423.18 1542.71L1433.2 1550.7L1439.89 1555.5L1449.91 1568.28L1463.27 1581.06L1444.9 1614.61L1461.6 1601.83L1456.59 1621L1449.91 1638.58L1441.56 1649.76L1431.53 1659.35L1419.84 1673.73L1408.15 1680.12L1388.11 1691.3L1401.47 1646.57L1406.48 1627.39L1408.15 1603.43L1406.48 1592.24L1403.14 1579.46L1394.79 1558.69L1383.1 1539.52L1371.41 1521.94L1374.75 1541.12L1349.7 1513.95L1333 1502.77L1314.62 1494.78L1279.55 1488.39H1262.85L1244.48 1493.18L1261.18 1499.57L1272.87 1510.76L1282.89 1525.14L1287.9 1544.31L1284.56 1571.47L1279.55 1585.85L1272.87 1597.04Z" fill="#292758" fill-opacity="0.97"/>
<path d="M1431.93 1333.9L1432.03 1333.94L1432.12 1333.99L1457.17 1348.37L1457.26 1348.42L1457.33 1348.48L1480.71 1367.65L1480.77 1367.7L1480.82 1367.75L1499.14 1386.87L1509.09 1394.8L1509.18 1394.87L1509.25 1394.95L1517.59 1404.53L1535.96 1425.3L1536 1425.34L1536.02 1425.38L1552.73 1447.74L1552.76 1447.79L1552.79 1447.84L1565.79 1469.61L1599.59 1468.07L1615.96 1444.58L1615.99 1444.53L1616.04 1444.48L1632.76 1425.29L1632.78 1425.26L1652.82 1404.49L1652.87 1404.44L1652.92 1404.4L1674.62 1386.83L1692.98 1370.87L1693 1370.85L1693.02 1370.83L1729.84 1342.01L1729.93 1341.97L1741.62 1335.58L1741.72 1335.52L1752.43 1332.11L1761.27 1338.87L1761.47 1339.03L1761.59 1339.26L1765.01 1345.79L1765.04 1345.94L1770.09 1368.48L1770.07 1368.65L1768.41 1389.38V1413.42L1768.38 1413.54L1763.37 1437.5L1763.37 1437.53L1763.36 1437.56L1756.68 1463.12L1756.65 1463.24L1756.6 1463.34L1744.91 1487.31L1744.89 1487.35L1744.86 1487.39L1738.13 1498.67L1738.06 1498.75L1729.94 1508.06L1728.3 1522.23L1723.16 1535.35L1723.01 1535.51L1713.04 1546.64L1706.47 1556.06L1703.25 1563.78L1701.62 1577.81L1704.96 1593.81L1703.23 1605.39L1698.54 1614.37L1708.12 1623.54L1711.67 1633.71L1711.6 1634.02L1709.93 1642.01L1709.9 1642.14L1709.85 1642.25L1704.64 1653.88L1696.06 1657.16L1689.66 1663.29L1684.72 1671.16L1684.57 1671.4L1684.31 1671.55L1675.96 1676.34L1675.92 1676.37L1675.88 1676.38L1665.62 1681.29H1655.22L1655.11 1681.27L1646.76 1679.67L1646.74 1679.67L1646.71 1679.66L1640.03 1678.07L1639.97 1678.05L1639.91 1678.03L1627.3 1673.51L1619.7 1682.23L1618.11 1692.86L1623.07 1714.97L1629.74 1737.3L1629.76 1737.39L1629.78 1737.48L1631.45 1750.27L1631.47 1750.44L1631.44 1750.62L1629.35 1762.63L1621.14 1753.21L1616.08 1800L1608.89 1789.67L1601.33 1809.9L1594.7 1832.12L1593.04 1855.95L1593.04 1855.97L1593.04 1855.99L1590.83 1876.71L1626.46 1863.03L1661.05 1844.79L1676.26 1833.08L1676.29 1833.05L1676.32 1833.03L1695.67 1820.01L1712.25 1803.09L1724.71 1790.05L1738.55 1773.1L1752.38 1753.56L1764.82 1731.42L1774.5 1707.97L1782.81 1685.8L1788.34 1662.29L1793.9 1633.56L1793.9 1633.52L1793.91 1633.49L1802.25 1601.53L1804.56 1601.76L1805.94 1625.88L1805.95 1625.96L1805.94 1626.04L1804.55 1643.05L1804.55 1643.11L1804.54 1643.16L1798.97 1675.58L1798.96 1675.63L1790.62 1706.08L1790.6 1706.16L1790.57 1706.24L1776.67 1737.65L1776.65 1737.7L1776.63 1737.75L1761.31 1765.29L1761.27 1765.34L1743.21 1790.21L1743.18 1790.25L1743.14 1790.3L1720.91 1815.16L1720.87 1815.21L1720.82 1815.26L1697.2 1836.19L1697.15 1836.24L1697.1 1836.27L1652.65 1867.68L1652.56 1867.74L1652.47 1867.78L1638.58 1874.33L1638.56 1874.33L1638.54 1874.34L1607.99 1887.42L1599.68 1891.34L1599.61 1891.37L1577.19 1898.53L1577.13 1898.55L1577.07 1898.56L1548.02 1904.51L1547.96 1904.52L1518.72 1907.15L1518.67 1907.15L1490.89 1908.46L1490.81 1908.46L1490.73 1908.46L1460.17 1905.84L1428.23 1903.22L1428.12 1903.21L1428.02 1903.19L1398.85 1895.33L1398.83 1895.33L1398.81 1895.33L1368.25 1886.17L1368.13 1886.13L1340.23 1870.36L1315.26 1857.29L1315.16 1857.24L1315.07 1857.17L1295.64 1841.48L1272.02 1823.16L1271.95 1823.1L1271.89 1823.04L1259.39 1809.96L1259.38 1809.94L1259.36 1809.92L1245.47 1794.22L1245.46 1794.21L1245.44 1794.19L1235.72 1782.41L1235.68 1782.37L1235.65 1782.31L1228.7 1771.85L1228.7 1771.84L1228.69 1771.83L1220.35 1758.74L1209.22 1741.7L1209.2 1741.65L1206.42 1736.42L1206.39 1736.37L1206.37 1736.32L1189.7 1697.07L1189.67 1696.99L1186.87 1686.44L1186.87 1686.42L1186.86 1686.4L1182.69 1668.08L1182.68 1668.03L1182.68 1667.99L1179.9 1648.36L1179.89 1648.3L1179.89 1648.24L1178.5 1614.15L1178.5 1614.08L1181.28 1579.37L1183.61 1579.25L1194.72 1641.57L1194.72 1641.59L1197.49 1659.1L1204.41 1684.48L1216.88 1718.41L1223.78 1733.57L1231.61 1700.75V1680.02L1231.63 1679.92L1234.98 1660.68L1235 1660.62L1240.01 1643.05L1240.03 1642.98L1255.09 1607.76L1255.09 1607.75L1263.37 1588.76L1265.02 1568.18L1267.33 1568.01L1273.36 1593.93L1278.48 1585.35L1283.41 1571.2L1286.71 1544.39L1281.81 1525.64L1271.97 1511.53L1260.54 1500.59L1240.64 1492.97L1262.7 1487.22H1279.66L1279.76 1487.24L1314.97 1493.65L1315.09 1493.7L1333.56 1501.74L1333.65 1501.79L1350.35 1512.98L1350.47 1513.06L1350.56 1513.16L1372.91 1537.39L1370.25 1522.14L1372.39 1521.29L1384.08 1538.87L1384.1 1538.91L1395.79 1558.08L1395.84 1558.16L1395.88 1558.25L1404.23 1579.02L1404.26 1579.09L1404.28 1579.16L1407.62 1591.95L1407.63 1592.01L1407.64 1592.07L1409.31 1603.25L1409.33 1603.38L1407.65 1627.47L1407.65 1627.58L1407.62 1627.69L1402.61 1646.86L1402.6 1646.88L1402.6 1646.9L1390.06 1688.87L1407.58 1679.09L1407.59 1679.09L1419.08 1672.81L1430.62 1658.61L1430.67 1658.55L1430.72 1658.5L1440.67 1648.98L1448.87 1638.01L1455.47 1620.64L1459.6 1604.84L1445.61 1615.54L1443.87 1614.05L1461.8 1581.28L1449.09 1569.13L1449.03 1569.07L1448.98 1569L1439.06 1556.35L1432.52 1551.66L1432.5 1551.64L1432.47 1551.62L1422.45 1543.63L1422.41 1543.6L1422.37 1543.56L1415.41 1536.9L1413.7 1527.07L1410.41 1519.2L1410.4 1519.17L1410.38 1519.13L1407.07 1509.63L1398.81 1493.82L1393.87 1487.52L1393.77 1487.39L1393.71 1487.25L1390.37 1479.26L1390.35 1479.22L1390.34 1479.19L1383.66 1460.02L1383.63 1459.94L1383.62 1459.86L1376.94 1426.31L1376.93 1426.25L1376.92 1426.19L1375.25 1408.62L1375.25 1408.56V1392.47L1375.25 1392.42L1376.92 1374.84L1376.93 1374.73L1376.96 1374.63L1381.97 1357.05L1381.99 1356.99L1382.02 1356.92L1388.79 1340.72L1388.97 1340.55L1395.65 1334.16L1395.73 1334.08L1395.83 1334.02L1400.84 1330.82L1401.08 1330.67L1401.36 1330.64L1418.06 1329.05L1418.32 1329.02L1431.93 1333.9ZM1401.87 1332.95L1397.19 1335.94L1390.77 1342.08L1384.21 1357.76L1379.25 1375.17L1377.59 1392.59V1408.44L1379.25 1425.9L1385.9 1459.32L1392.55 1478.39L1395.81 1486.19L1400.73 1492.46L1400.79 1492.54L1400.84 1492.64L1409.19 1508.62L1409.23 1508.69L1412.59 1518.32L1415.97 1526.4L1415.99 1526.53L1417.59 1535.74L1423.96 1541.83L1433.9 1549.76L1440.57 1554.54L1440.71 1554.64L1450.78 1567.49L1464.73 1580.83L1448.59 1610.3L1463.6 1598.82L1457.72 1621.3L1457.71 1621.36L1457.68 1621.42L1450.95 1639.15L1450.85 1639.28L1442.5 1650.46L1442.44 1650.54L1442.37 1650.61L1432.4 1660.14L1420.75 1674.47L1420.61 1674.65L1408.72 1681.15L1386.16 1693.74L1400.35 1646.23L1405.32 1627.2L1406.97 1603.47L1405.33 1592.48L1402.02 1579.83L1393.74 1559.22L1382.1 1540.14L1373.52 1527.24L1376.59 1544.84L1348.93 1514.85L1332.43 1503.8L1314.28 1495.91L1279.44 1489.56H1263L1248.32 1493.4L1261.6 1498.48L1261.82 1498.56L1261.99 1498.73L1273.68 1509.91L1273.77 1509.99L1273.83 1510.09L1283.86 1524.47L1283.97 1524.64L1284.03 1524.84L1289.04 1544.01L1289.09 1544.23L1285.73 1571.62L1285.71 1571.74L1285.67 1571.86L1280.66 1586.24L1280.62 1586.35L1280.56 1586.45L1272.39 1600.14L1266.75 1575.9L1265.67 1589.34L1257.25 1608.69L1242.25 1643.76L1237.27 1661.21L1233.96 1680.22V1701.03L1233.93 1701.16L1224.47 1740.77L1214.72 1719.34L1214.7 1719.3L1214.69 1719.26L1202.17 1685.19L1202.15 1685.14L1195.21 1659.66L1195.19 1659.59L1195.18 1659.53L1192.41 1641.98L1182.89 1588.64L1180.85 1614.2L1182.23 1648.09L1184.99 1667.61L1189.14 1685.84L1191.9 1696.23L1208.52 1735.36L1211.24 1740.5L1222.33 1757.47L1222.34 1757.48L1230.66 1770.55L1237.57 1780.96L1247.25 1792.69L1261.1 1808.35L1273.53 1821.36L1297.08 1839.62L1297.09 1839.64L1316.45 1855.27L1341.35 1868.3L1341.37 1868.31L1341.39 1868.32L1369.05 1883.95L1399.48 1893.07L1428.53 1900.89L1460.37 1903.5H1460.37L1490.86 1906.11L1518.55 1904.8L1547.62 1902.2L1576.54 1896.27L1598.75 1889.18L1607.02 1885.29L1607.04 1885.28L1607.06 1885.27L1637.61 1872.19L1651.38 1865.7L1695.69 1834.4L1719.2 1813.55L1741.35 1788.77L1759.33 1764.02L1774.55 1736.64L1788.38 1705.37L1796.68 1675.08L1802.22 1642.81L1803.59 1625.93L1802.64 1609.33L1796.19 1634.04L1790.64 1662.77L1790.64 1662.79L1790.63 1662.81L1785.08 1686.41L1785.06 1686.48L1776.7 1708.8L1776.69 1708.82L1776.69 1708.83L1766.96 1732.39L1766.94 1732.45L1754.4 1754.76L1754.37 1754.81L1754.33 1754.86L1740.44 1774.49L1740.42 1774.52L1740.39 1774.56L1726.5 1791.57L1726.47 1791.6L1726.44 1791.64L1713.94 1804.72L1713.93 1804.73L1713.93 1804.73L1697.26 1821.74L1697.18 1821.83L1697.08 1821.9L1677.65 1834.97L1662.41 1846.71L1662.33 1846.78L1662.24 1846.82L1627.49 1865.14L1627.43 1865.17L1627.36 1865.2L1588.09 1880.28L1590.7 1855.77L1592.37 1831.82L1592.38 1831.69L1592.41 1831.57L1599.09 1809.2L1599.11 1809.16L1599.12 1809.12L1608.25 1784.66L1614.42 1793.51L1619.38 1747.62L1627.88 1757.37L1629.09 1750.39L1627.46 1737.88L1620.81 1715.6L1620.79 1715.57L1620.79 1715.53L1615.73 1692.94L1617.48 1681.2L1626.58 1670.75L1640.64 1675.8L1647.22 1677.37L1655.45 1678.94H1665.09L1674.83 1674.28L1682.89 1669.66L1687.74 1661.92L1687.82 1661.8L1687.93 1661.69L1694.61 1655.3L1694.78 1655.14L1695 1655.06L1702.9 1652.03L1707.66 1641.41L1709.23 1633.86L1706.09 1624.85L1695.64 1614.85L1700.96 1604.66L1702.58 1593.88L1699.28 1578.1L1699.24 1577.92L1699.26 1577.73L1700.93 1563.35L1700.95 1563.18L1701.01 1563.03L1704.36 1555.04L1704.4 1554.93L1704.48 1554.82L1711.16 1545.24L1711.2 1545.18L1711.25 1545.12L1721.12 1534.1L1726 1521.66L1727.7 1507.07L1736.22 1497.28L1742.82 1486.23L1754.44 1462.41L1761.08 1437L1766.06 1413.18V1389.28L1766.06 1389.24L1767.72 1368.64L1762.78 1346.6L1759.63 1340.58L1751.98 1334.71L1742.64 1337.69L1731.14 1343.98L1694.49 1372.67L1676.15 1388.62L1676.13 1388.63L1676.12 1388.65L1654.46 1406.17L1634.49 1426.88L1617.85 1445.97L1600.85 1470.36L1564.5 1472.02L1550.81 1449.1L1534.17 1426.82L1515.83 1406.09L1515.83 1406.08L1507.54 1396.57L1497.61 1388.65L1497.55 1388.6L1497.49 1388.55L1479.17 1369.42L1455.92 1350.36L1431.04 1336.08L1418.02 1331.41L1401.87 1332.95Z" fill="white"/>
<path d="M1600.23 1724.86L1611.92 1734.44V1718.47L1608.58 1713.67L1605.24 1704.09L1603.57 1689.71L1606.91 1673.73L1588.53 1676.93L1575.17 1689.71L1566.82 1705.68V1723.26L1548.45 1704.09L1535.09 1683.32L1533.42 1707.28L1543.44 1726.46L1563.48 1768L1561.81 1790.36L1556.8 1803.15L1546.78 1820.72L1531.75 1831.91L1546.78 1825.51L1561.81 1812.73L1573.5 1798.35L1581.85 1775.99L1580.18 1809.54L1593.54 1785.57L1596.89 1774.39V1756.81L1606.91 1768L1600.23 1724.86Z" fill="white"/>
<path d="M1600.23 1640.18L1595.21 1646.57L1606.91 1644.97L1613.59 1648.17L1623.61 1651.36L1631.96 1656.16L1652 1659.35H1673.71L1670.37 1662.55L1662.02 1665.74H1650.33L1636.97 1662.55L1605.24 1654.56L1570.16 1652.96L1555.13 1656.16L1540.1 1660.95L1545.11 1652.96L1555.13 1648.17L1543.44 1646.57L1531.75 1648.17L1521.73 1649.76L1515.05 1652.96H1510.04L1513.38 1648.17L1520.06 1641.78L1535.09 1633.79L1511.71 1635.38L1491.67 1644.97L1493.34 1636.98L1500.02 1630.59L1526.74 1613.02H1515.05L1538.43 1601.83L1570.16 1614.61H1593.54L1615.26 1624.2H1580.18L1563.48 1625.8L1550.12 1630.59H1613.59V1635.38L1588.53 1636.98L1568.49 1643.37L1600.23 1640.18Z" fill="white"/>
<path d="M1693.75 1640.18L1687.07 1648.17H1688.74H1693.75L1697.09 1644.97V1640.18H1693.75Z" fill="white"/>
<path d="M1685.4 1625.8L1683.73 1630.59H1698.76L1700.43 1628.99L1698.76 1627.4L1697.09 1625.8H1685.4Z" fill="white"/>
<path d="M1640.31 1627.4H1667.03L1673.71 1621.01L1667.03 1617.81L1658.68 1609.82L1650.33 1597.04L1646.99 1582.66L1648.66 1568.28L1663.69 1582.66L1668.7 1593.84L1673.71 1601.83L1683.73 1611.42L1693.75 1621.01H1683.73H1678.72L1672.6 1624.2L1670.37 1628.99V1635.38L1675.38 1640.18L1683.73 1646.57L1658.68 1652.96L1643.65 1651.36L1631.96 1646.57L1628.62 1640.18L1650.33 1643.37L1653.67 1640.18L1630.29 1636.98L1633.63 1630.59L1653.67 1636.98L1640.31 1627.4Z" fill="white"/>
<path d="M1484.99 1392.53L1486.66 1389.33L1526.74 1434.07L1560.14 1483.6L1565.15 1497.98L1563.48 1509.16L1526.74 1448.45L1484.99 1392.53Z" fill="white"/>
<path d="M1571.83 1482L1570.16 1475.61L1585.19 1477.21L1593.54 1482L1598.56 1486.8L1591.87 1477.21H1601.9L1611.92 1478.81L1630.29 1486.8L1631.96 1493.19L1618.6 1486.8L1605.24 1485.2L1608.58 1502.77L1591.87 1489.99L1571.83 1482Z" fill="white"/>
<path d="M1733.84 1350.99L1715.47 1365.37L1667.03 1445.25L1648.66 1501.18L1640.31 1502.77L1663.69 1517.15L1670.37 1528.34L1675.38 1541.12L1688.74 1547.51L1687.07 1541.12L1683.73 1534.73L1677.05 1523.54L1670.37 1513.96L1667.03 1509.16L1660.35 1505.97L1658.68 1499.58L1660.35 1493.19L1663.69 1480.4L1672.04 1454.84L1683.73 1427.68L1697.09 1402.12L1713.8 1374.95L1733.84 1350.99Z" fill="white"/>
<path d="M1738.85 1365.37L1733.84 1366.97L1717.14 1386.14L1703.77 1410.1L1692.08 1434.07L1687.07 1446.85L1685.4 1453.24V1458.04L1693.75 1453.24L1687.07 1459.63L1683.73 1462.83L1680.39 1467.62L1675.38 1483.6L1673.71 1499.58L1677.05 1501.18L1692.08 1494.78L1710.46 1477.21L1690.41 1483.6L1717.14 1445.25L1697.09 1454.84L1725.49 1416.5L1707.11 1424.48L1738.85 1365.37Z" fill="white"/>
<path d="M1324.65 1614.61L1312.96 1568.28L1306.28 1590.65L1292.91 1608.22L1299.59 1584.26L1302.94 1573.07L1304.61 1555.5V1536.33L1299.59 1525.14L1292.91 1510.76L1284.56 1499.58L1301.26 1502.77L1317.97 1507.57L1343.02 1523.54L1354.71 1536.33L1364.73 1552.3L1371.41 1569.88L1378.09 1587.45L1383.1 1565.08L1389.78 1579.46L1391.45 1597.04V1613.02L1388.11 1628.99L1368.07 1659.35L1373.08 1644.97L1376.42 1636.98L1378.09 1627.4L1381.43 1603.43V1593.84L1378.09 1587.45L1371.41 1605.03L1368.07 1585.86L1363.06 1576.27L1361.39 1571.48L1356.38 1569.88V1606.63L1351.37 1621.01L1348.03 1628.99L1344.69 1633.79L1341.35 1636.98L1336.34 1577.87L1333 1595.44L1329.66 1606.63L1324.65 1614.61Z" fill="white"/>
<path d="M1606.9 1573.07C1606.9 1576.6 1603.91 1579.47 1600.22 1579.47C1596.53 1579.47 1593.54 1576.6 1593.54 1573.07C1593.54 1569.54 1596.53 1566.68 1600.22 1566.68C1603.91 1566.68 1606.9 1569.54 1606.9 1573.07Z" fill="white"/>
<path d="M1680.73 1572.54C1680.38 1576.27 1678.71 1579.47 1675.72 1577.87C1672.03 1579.47 1672.03 1576.07 1672.03 1572.54C1672.03 1569.01 1673.7 1569.88 1675.72 1567.75C1678.71 1566.69 1680.38 1566.69 1680.73 1572.54Z" fill="white"/>
<path d="M1533.42 1793.56L1538.43 1780.78V1803.15L1531.75 1831.91L1546.78 1820.72L1556.8 1803.15L1561.81 1790.37L1563.48 1768L1533.42 1707.28L1516.71 1662.55L1505.02 1675.33L1501.68 1692.9L1505.02 1712.08L1510.03 1726.46L1489.99 1708.88L1491.66 1723.26L1493.33 1737.64L1501.68 1748.82L1513.37 1768L1515.04 1758.41V1750.42L1521.72 1760.01L1526.74 1768L1533.42 1793.56Z" fill="#F47231"/>
<path d="M1523.39 1886.23H1510.03L1505.02 1859.07L1506.69 1836.7L1511.7 1825.52L1523.39 1816.82L1518.38 1838.3V1851.08L1520.05 1870.26L1523.39 1886.23Z" fill="#F47231"/>
<path d="M1583.52 1820.72L1570.15 1831.91L1568.48 1841.49V1854.28V1878.24L1578.51 1876.64L1580.18 1863.86L1581.85 1847.88L1583.52 1835.1V1820.72Z" fill="#F47231"/>
<path d="M1446.57 1817.53H1439.89V1804.74L1442.37 1790.36L1446.57 1775.98L1454.92 1766.4L1453.25 1780.78V1796.75L1456.59 1812.73L1459.93 1825.51L1468.28 1852.68L1473.29 1867.06V1879.84L1456.59 1851.08L1448.24 1831.91L1446.57 1825.51V1817.53Z" fill="#F47231"/>
<path d="M1396.46 1827.11L1409.82 1830.31L1401.47 1822.32L1389.78 1817.53L1366.4 1815.93L1373.08 1809.54L1384.77 1806.34H1403.14L1418.17 1814.33L1429.86 1827.11L1436.54 1839.9L1441.55 1854.28V1870.25V1883.03L1433.2 1881.44L1429.86 1863.86L1419.84 1849.48L1416.5 1843.09L1409.82 1838.3L1396.46 1827.11Z" fill="#F47231"/>
<path d="M1378.09 1736.04L1334.66 1807.94L1332.99 1783.97L1339.67 1763.2L1349.69 1742.43L1363.05 1723.26L1378.09 1708.88L1394.79 1697.7L1413.16 1688.11L1429.86 1676.92L1439.88 1660.95L1449.9 1652.96L1466.6 1622.6V1648.17L1464.93 1660.95L1459.92 1673.73L1456.58 1667.34L1448.23 1676.92L1439.88 1689.71L1431.53 1726.45L1428.19 1696.1L1393.12 1713.67L1414.83 1715.27L1368.06 1736.04H1378.09Z" fill="#F47231"/>
<path d="M1292.92 1608.22V1581.06L1269.54 1621.01L1261.19 1643.37L1259.52 1668.94H1262.86L1264.53 1665.74L1267.87 1660.95L1274.55 1649.77L1282.9 1640.18L1292.92 1633.79L1281.23 1656.16L1272.88 1678.52L1269.54 1704.09L1274.55 1728.05L1296.26 1681.72L1289.58 1724.86L1291.25 1747.23L1296.26 1758.41L1302.94 1768L1306.28 1734.45L1311.29 1720.07L1316.3 1710.48L1311.29 1742.43L1314.63 1760.01L1321.31 1772.79L1336.34 1732.85L1364.74 1699.3L1371.42 1683.32L1379.77 1665.74L1383.11 1649.77L1388.12 1629L1368.08 1659.35L1376.43 1636.98L1378.1 1630.59L1379.77 1619.41L1381.44 1601.83V1593.85L1378.1 1585.86L1371.42 1605.03L1368.08 1585.86L1363.07 1576.27L1361.4 1571.48L1356.39 1569.88V1606.63L1351.37 1621.01L1348.03 1629L1344.69 1633.79L1341.35 1636.98L1343.02 1619.41V1611.42V1603.43L1341.35 1589.05L1339.68 1582.66L1336.34 1576.27L1333 1595.44L1329.66 1606.63L1324.65 1614.62L1321.31 1589.05L1317.97 1576.27L1312.96 1566.68L1306.28 1590.65L1292.92 1608.22Z" fill="#F47231"/>
<path d="M1673.7 1621.01L1667.02 1627.4H1640.3L1635.29 1625.8L1643.64 1614.62L1626.94 1582.66L1603.56 1560.29L1575.16 1563.49L1565.14 1571.48L1541.76 1569.88L1551.78 1574.67L1530.07 1589.05L1566.81 1579.47L1590.2 1595.44L1615.25 1592.25L1626.94 1606.63L1615.25 1624.2L1593.54 1614.62H1570.15L1538.42 1601.83L1515.04 1613.02H1526.73L1513.37 1619.41L1500.01 1630.59L1515.04 1603.43L1486.65 1614.62L1491.66 1595.44L1503.35 1577.87L1483.31 1585.86L1500.01 1560.29L1489.99 1563.49L1479.97 1561.89L1469.95 1557.1L1476.63 1553.9L1458.25 1547.51L1441.55 1539.52L1429.86 1529.94L1421.51 1513.96L1454.91 1526.74L1413.16 1489.99L1389.78 1430.88L1388.11 1373.36L1396.46 1347.79L1406.48 1338.21H1418.17L1449.9 1357.38L1486.65 1389.33L1484.98 1392.53L1526.73 1448.45L1545.1 1478.81L1563.47 1509.16L1565.14 1497.98L1560.13 1483.6L1581.85 1496.38L1571.82 1482L1590.2 1489.24L1608.57 1502.77L1605.23 1485.2L1618.59 1486.8L1631.95 1493.19L1630.28 1486.8L1640.3 1493.19L1648.65 1454.84L1670.36 1416.5L1715.46 1365.37L1667.02 1445.26L1648.65 1501.18L1640.3 1502.77L1651.99 1509.16L1663.68 1517.15L1670.36 1528.34L1675.37 1541.12L1688.73 1547.51L1692.07 1552.3V1560.29L1688.73 1565.09L1680.38 1560.29L1673.7 1558.69L1667.02 1565.09L1675.37 1541.12L1668.69 1545.91L1663.68 1553.9L1662.01 1563.49L1663.68 1582.66L1648.65 1568.28L1646.98 1582.66L1650.32 1597.04L1658.67 1609.82L1667.02 1617.81L1673.7 1621.01Z" fill="#F47231"/>
<path d="M1678.71 1592.25L1688.73 1577.87L1692.07 1589.05V1597.04L1687.06 1601.83L1678.71 1592.25Z" fill="#F47231"/>
<path d="M1682.05 1513.96L1697.09 1537.92L1708.78 1528.34L1712.12 1521.95L1713.79 1513.96L1697.09 1517.15V1513.96L1722.14 1489.99L1737.17 1461.23L1745.52 1438.86L1748.86 1422.89L1752.2 1410.11L1753.87 1394.13V1373.36V1358.98L1748.86 1350.99L1733.83 1366.97L1738.84 1365.37L1707.11 1424.49L1725.48 1416.5L1697.09 1454.84L1717.13 1445.26L1690.4 1483.6L1710.45 1477.21L1682.05 1513.96Z" fill="#F47231"/>
<path d="M1454.92 1505.97L1451.58 1512.36L1416.5 1475.61L1406.48 1453.24L1399.8 1430.87L1398.13 1387.74L1399.8 1365.37L1404.81 1355.78L1413.16 1349.39L1426.53 1352.59L1439.89 1360.57L1459.93 1378.15L1496.67 1418.09L1523.39 1462.83L1535.08 1488.39L1541.77 1513.96L1518.38 1526.74L1500.01 1547.51L1503.35 1528.34L1479.97 1509.16L1483.31 1523.54V1539.52L1454.92 1505.97Z" fill="#292758" fill-opacity="0.97"/>
<path d="M1516.71 1496.38L1501.68 1491.59L1511.7 1502.78L1518.38 1513.96L1501.68 1509.17L1484.98 1501.18L1471.62 1489.99L1461.6 1475.61L1488.32 1483.6L1466.61 1466.03L1458.26 1456.44L1451.58 1443.66L1478.3 1454.84L1458.26 1434.07L1449.91 1422.89L1444.9 1411.7L1468.28 1427.68L1436.55 1374.96L1451.58 1384.54L1461.6 1395.73L1483.31 1419.69L1500.01 1446.85L1511.7 1475.61L1498.34 1469.22L1510.03 1482L1516.71 1496.38Z" fill="white"/>
</g>
<path d="M1701.41 1153.62H1716.79V1271.54H1701.41V1312.56L1850.1 1338.2V1276.67L1803.95 1266.42V1286.92L1762.93 1281.8V1235.65L1809.08 1245.91V1204.89L1762.93 1199.76V1158.74L1803.95 1163.87V1184.38L1850.1 1194.63V1133.11L1701.41 1112.6V1133.11V1153.62Z" fill="white"/>
<path d="M1850.1 1133.11V1194.63L1803.95 1184.38V1163.87L1762.93 1158.74V1199.76L1809.08 1204.89V1245.91L1762.93 1235.65V1281.8L1803.95 1286.92V1266.42L1850.1 1276.67V1338.2L1701.41 1312.56V1271.54H1716.79V1153.62H1701.41V1112.6L1850.1 1133.11ZM1707.65 1147.38H1723.03V1277.78H1707.65V1307.3L1843.86 1330.79V1281.68L1810.19 1274.19V1293.99L1756.69 1287.31V1227.87L1802.84 1238.13V1210.47L1756.69 1205.35V1151.67L1810.19 1158.36V1179.37L1843.86 1186.85V1138.54L1707.65 1119.76V1147.38Z" fill="#F47231"/>
<path d="M1562.28 1305.94L1423 1309.4V1276.85L1440.41 1268.67V1137.19L1423 1140.1V1079L1559.38 1087.73L1594.2 1117.37V1172.11V1184.29V1195.38V1273.94L1562.28 1305.94Z" fill="white"/>
<path d="M1587.96 1120.25L1556.92 1093.82L1429.24 1085.65V1132.73L1446.65 1129.82V1272.63L1429.24 1280.81V1303L1559.63 1299.77L1587.96 1271.36V1120.25ZM1594.2 1273.94L1562.28 1305.95L1423 1309.4V1276.85L1440.41 1268.67V1137.19L1423 1140.1V1079L1559.38 1087.73L1594.2 1117.37V1273.94Z" fill="#F47231"/>
<path d="M1489.74 1271.58V1120.28H1536.17L1547.78 1131.92V1259.94L1536.17 1271.58H1489.74Z" fill="#292758" fill-opacity="0.97"/>
<path d="M1537.47 1117.16L1550.9 1130.63V1261.23L1537.47 1274.7H1486.62V1117.16H1537.47ZM1492.86 1268.46H1534.88L1544.66 1258.65V1133.21L1534.88 1123.4H1492.86V1268.46Z" fill="#F47231"/>
<path d="M1273.53 1317.45L1149.4 1338.2V1294.11L1164.91 1291.52V1167.05L1149.4 1169.65L1151.98 1128.16L1270.95 1112.6L1301.98 1133.34V1198.17L1291.64 1208.54L1301.98 1218.91V1288.93L1273.53 1317.45Z" fill="white"/>
<path d="M1301.98 1133.34V1198.17L1291.64 1208.54L1301.98 1218.91V1288.93L1273.54 1317.45L1149.4 1338.2V1294.11L1164.92 1291.52V1167.05L1149.4 1169.65L1151.98 1128.16L1270.95 1112.6L1301.98 1133.34ZM1157.89 1133.68L1156.11 1162.2L1171.15 1159.68V1296.81L1155.64 1299.4V1330.83L1270.53 1311.63L1295.74 1286.35V1221.49L1282.83 1208.54L1295.74 1195.59V1136.68L1269.43 1119.09L1157.89 1133.68Z" fill="#F47231"/>
<path d="M1206.29 1200.77V1143.72L1252.85 1138.53L1258.02 1148.9V1185.21L1252.85 1195.58L1206.29 1200.77Z" fill="#292758" fill-opacity="0.97"/>
<path d="M1261.14 1148.17V1185.94L1254.88 1198.49L1203.17 1204.25V1140.93L1254.67 1135.19L1261.14 1148.17ZM1209.42 1146.51V1197.28L1250.81 1192.67L1254.9 1184.47V1149.64L1251.03 1141.87L1209.42 1146.51Z" fill="#F47231"/>
<path d="M1206.29 1288.93V1231.88L1252.85 1226.69L1258.02 1237.07V1273.37L1252.85 1283.74L1206.29 1288.93Z" fill="#292758" fill-opacity="0.97"/>
<path d="M1261.14 1236.33V1274.1L1254.88 1286.66L1203.17 1292.42V1229.09L1254.67 1223.35L1261.14 1236.33ZM1209.42 1234.67V1285.44L1250.81 1280.83L1254.9 1272.64V1237.8L1251.03 1230.04L1209.42 1234.67Z" fill="#F47231"/>
</g>
<defs>
<filter id="filter0_f_110_399" x="0" y="0" width="3027" height="3027" filterUnits="userSpaceOnUse" color-interpolation-filters="sRGB">
<feFlood flood-opacity="0" result="BackgroundImageFix"/>
<feBlend mode="normal" in="SourceGraphic" in2="BackgroundImageFix" result="shape"/>
<feGaussianBlur stdDeviation="39.5" result="effect1_foregroundBlur_110_399"/>
</filter>
<filter id="filter1_d_110_399" x="1011.87" y="1241.57" width="994.966" height="923.222" filterUnits="userSpaceOnUse" color-interpolation-filters="sRGB">
<feFlood flood-opacity="0" result="BackgroundImageFix"/>
<feColorMatrix in="SourceAlpha" type="matrix" values="0 0 0 0 0 0 0 0 0 0 0 0 0 0 0 0 0 0 127 0" result="hardAlpha"/>
<feOffset dy="28.69"/>
<feGaussianBlur stdDeviation="14.345"/>
<feComposite in2="hardAlpha" operator="out"/>
<feColorMatrix type="matrix" values="0 0 0 0 0 0 0 0 0 0 0 0 0 0 0 0 0 0 0.25 0"/>
<feBlend mode="normal" in2="BackgroundImageFix" result="effect1_dropShadow_110_399"/>
<feBlend mode="normal" in="SourceGraphic" in2="effect1_dropShadow_110_399" result="shape"/>
</filter>
<filter id="filter2_d_110_399" x="535" y="542" width="1961" height="1954" filterUnits="userSpaceOnUse" color-interpolation-filters="sRGB">
<feFlood flood-opacity="0" result="BackgroundImageFix"/>
<feColorMatrix in="SourceAlpha" type="matrix" values="0 0 0 0 0 0 0 0 0 0 0 0 0 0 0 0 0 0 127 0" result="hardAlpha"/>
<feOffset dx="24" dy="4"/>
<feGaussianBlur stdDeviation="8.5"/>
<feComposite in2="hardAlpha" operator="out"/>
<feColorMatrix type="matrix" values="0 0 0 0 0 0 0 0 0 0 0 0 0 0 0 0 0 0 1 0"/>
<feBlend mode="normal" in2="BackgroundImageFix" result="effect1_dropShadow_110_399"/>
<feBlend mode="normal" in="SourceGraphic" in2="effect1_dropShadow_110_399" result="shape"/>
</filter>
<filter id="filter3_d_110_399" x="1159.3" y="1329.02" width="665.853" height="617.841" filterUnits="userSpaceOnUse" color-interpolation-filters="sRGB">
<feFlood flood-opacity="0" result="BackgroundImageFix"/>
<feColorMatrix in="SourceAlpha" type="matrix" values="0 0 0 0 0 0 0 0 0 0 0 0 0 0 0 0 0 0 127 0" result="hardAlpha"/>
<feOffset dy="19.2"/>
<feGaussianBlur stdDeviation="9.6"/>
<feComposite in2="hardAlpha" operator="out"/>
<feColorMatrix type="matrix" values="0 0 0 0 0 0 0 0 0 0 0 0 0 0 0 0 0 0 0.25 0"/>
<feBlend mode="normal" in2="BackgroundImageFix" result="effect1_dropShadow_110_399"/>
<feBlend mode="normal" in="SourceGraphic" in2="effect1_dropShadow_110_399" result="shape"/>
</filter>
</defs>
</svg>
