<svg width="1920" height="1920" viewBox="0 0 1920 1920" fill="none" xmlns="http://www.w3.org/2000/svg">
<rect width="1920" height="1920" fill="#1E1E1E"/>
<path d="M383.274 1381.95L439.116 1450.12L418.39 1467.11L380.179 1420.41L355.426 1440.69L388.529 1481.16L367.803 1498.15L334.7 1457.68L291.872 1492.75L274.29 1471.29L383.372 1381.95H383.274Z" fill="#EF7835"/>
<path d="M456.556 1467.71L528.999 1530.97L511.367 1551.15L459.847 1506.16L440.054 1528.8L485.631 1568.64L468 1588.82L422.422 1548.99L402.383 1571.93L455.917 1618.68L438.285 1638.87L363.829 1573.84L456.556 1467.66V1467.71ZM542.653 1496.34L504.295 1497.17L492.016 1486.47L520.257 1476.84L542.604 1496.39L542.653 1496.34Z" fill="#EF7835"/>
<path d="M587.1 1738.03L542.456 1601.1L547.318 1609.2L504.933 1684.25L480.523 1670.25L553.457 1543.14L554.44 1543.73L597.267 1679.19L593.289 1673.84L636.558 1597.32L660.821 1611.22L587.788 1738.47L587.15 1738.08L587.1 1738.03Z" fill="#EF7835"/>
<path d="M690.976 1622.8L782.132 1653.45L773.586 1678.89L708.755 1657.09L699.178 1685.57L756.543 1704.87L747.998 1730.32L690.632 1711.01L680.908 1739.89L748.292 1762.54L739.746 1787.93L646.086 1756.44L691.025 1622.8H690.976Z" fill="#EF7835"/>
<path d="M810.428 1659.69L837.882 1663.92L820.594 1776.78L886.112 1786.8L882.036 1813.32L789.063 1799.08L810.428 1659.74V1659.69Z" fill="#EF7835"/>
<path d="M918.772 1747.31C918.38 1737.64 919.902 1728.35 923.242 1719.51C926.582 1710.67 931.444 1702.81 937.78 1695.84C944.066 1688.86 951.482 1683.31 960.028 1679.14C968.574 1674.97 977.808 1672.71 987.729 1672.31C997.551 1671.92 1006.88 1673.49 1015.72 1676.98C1024.56 1680.47 1032.42 1685.43 1039.4 1691.86C1046.37 1698.29 1051.87 1705.81 1056 1714.31C1060.12 1722.85 1062.33 1731.94 1062.73 1741.66C1063.12 1751.63 1061.6 1761.01 1058.16 1769.85C1054.72 1778.7 1049.81 1786.5 1043.33 1793.33C1036.89 1800.16 1029.38 1805.61 1020.88 1809.64C1012.33 1813.66 1003.15 1815.87 993.328 1816.27C983.357 1816.66 973.977 1815.19 965.185 1811.8C956.345 1808.46 948.536 1803.6 941.709 1797.26C934.882 1790.92 929.43 1783.51 925.403 1774.96C921.375 1766.42 919.165 1757.18 918.772 1747.21V1747.31ZM947.504 1746.18C947.75 1752.42 949.076 1758.21 951.532 1763.57C953.987 1768.92 957.278 1773.59 961.453 1777.57C965.627 1781.54 970.44 1784.59 975.794 1786.7C981.196 1788.81 986.992 1789.7 993.229 1789.5C999.221 1789.25 1004.77 1787.88 1009.83 1785.42C1014.89 1782.92 1019.26 1779.53 1022.94 1775.21C1026.63 1770.94 1029.43 1766.02 1031.39 1760.52C1033.36 1755.02 1034.19 1749.13 1033.94 1742.89C1033.7 1736.51 1032.37 1730.61 1029.92 1725.21C1027.46 1719.81 1024.22 1715.14 1020.19 1711.11C1016.17 1707.14 1011.45 1704.09 1006.15 1701.98C1000.84 1699.87 995.096 1698.93 988.956 1699.18C982.817 1699.42 977.218 1700.8 972.061 1703.3C966.904 1705.81 962.435 1709.2 958.653 1713.52C954.871 1717.84 951.973 1722.75 950.009 1728.3C948.044 1733.9 947.209 1739.85 947.455 1746.23L947.504 1746.18Z" fill="#EF7835"/>
<path d="M1241.95 1775.75L1113.41 1710.77L1122.55 1713.03L1145.78 1796.03L1118.62 1803.45L1080.02 1662.1L1081.1 1661.8L1207.32 1727.03L1200.69 1726.04L1176.97 1641.37L1203.93 1634L1242.58 1775.55L1241.85 1775.75H1241.95Z" fill="#EF7835"/>
<path d="M1376.41 1583.81C1370.32 1584.01 1364.37 1584.74 1358.63 1585.92C1352.88 1587.1 1347.92 1588.97 1343.74 1591.42C1338.59 1594.52 1335.15 1597.96 1333.43 1601.79C1331.71 1605.62 1332.1 1609.64 1334.56 1613.82C1336.28 1616.67 1338.88 1618.53 1342.52 1619.47C1346.15 1620.4 1350.23 1620.65 1354.8 1620.3C1359.41 1619.91 1364.08 1619.32 1368.74 1618.44C1373.02 1617.65 1377.44 1617.16 1382 1616.91C1386.52 1616.67 1390.99 1617.06 1395.31 1618.14C1399.64 1619.17 1403.86 1621.24 1407.89 1624.28C1411.91 1627.33 1415.65 1631.75 1419.13 1637.54C1422.77 1643.68 1424.59 1650.36 1424.54 1657.48C1424.54 1664.65 1422.38 1671.68 1418.15 1678.55C1413.93 1685.43 1407.3 1691.57 1398.31 1696.92C1393.69 1699.67 1388.73 1701.98 1383.38 1703.9C1378.03 1705.81 1372.53 1707.19 1366.78 1707.97C1361.03 1708.81 1355.14 1709 1349.1 1708.56L1348.56 1683.71C1352.63 1684.1 1356.86 1684.1 1361.13 1683.71C1365.45 1683.32 1369.53 1682.53 1373.46 1681.4C1377.39 1680.27 1380.78 1678.85 1383.63 1677.13C1386.47 1675.46 1389.13 1673.3 1391.53 1670.74C1393.94 1668.19 1395.51 1665.34 1396.3 1662.25C1397.03 1659.15 1396.35 1655.81 1394.28 1652.33C1392.86 1649.92 1390.75 1648.2 1388 1647.17C1385.25 1646.14 1382 1645.6 1378.37 1645.55C1374.69 1645.55 1370.9 1645.84 1367.02 1646.53C1362.46 1647.32 1357.59 1647.95 1352.54 1648.45C1347.48 1648.94 1342.42 1648.84 1337.36 1648.25C1332.3 1647.61 1327.54 1645.94 1322.97 1643.19C1318.4 1640.44 1314.47 1636.22 1310.99 1630.37C1306.81 1623.35 1304.75 1616.32 1304.8 1609.3C1304.85 1602.28 1306.86 1595.6 1310.74 1589.16C1314.67 1582.73 1320.22 1577.18 1327.49 1572.37C1337.26 1566.57 1345.86 1562.99 1353.32 1561.66C1360.79 1560.33 1367.86 1559.84 1374.59 1560.14L1376.41 1583.81Z" fill="#EF7835"/>
<path d="M1464.17 1586.86C1467.12 1590.25 1470.95 1592.6 1475.62 1593.93C1480.33 1595.26 1485.19 1595.45 1490.16 1594.52C1495.17 1593.59 1499.63 1591.38 1503.61 1587.94C1507.93 1584.16 1510.98 1579.88 1512.7 1575.02C1514.42 1570.16 1514.91 1565.34 1514.22 1560.53C1513.53 1555.72 1511.72 1551.64 1508.77 1548.25L1450.57 1481.06L1471.25 1463.14L1529.79 1530.77C1536.57 1538.58 1540.64 1547.17 1541.97 1556.55C1543.35 1565.93 1542.22 1575.17 1538.63 1584.3C1535.05 1593.44 1529.2 1601.44 1521.2 1608.37C1513.29 1615.24 1504.6 1619.76 1495.12 1621.97C1485.64 1624.18 1476.35 1623.94 1467.27 1621.29C1458.18 1618.63 1450.27 1613.33 1443.5 1605.52L1384.95 1537.89L1405.97 1519.72L1464.17 1586.91V1586.86Z" fill="#EF7835"/>
<path d="M1518.15 1406.9C1525.42 1397.81 1533.08 1391.38 1541.14 1387.5C1549.19 1383.67 1557.3 1382.29 1565.5 1383.42C1573.65 1384.55 1581.56 1388.19 1589.12 1394.23C1593.59 1397.81 1597.57 1402.09 1601.06 1407.09C1604.54 1412.1 1606.9 1417.51 1608.23 1423.4C1609.55 1429.29 1609.36 1435.58 1607.69 1442.36C1605.97 1449.09 1602.24 1456.06 1596.49 1463.23L1584.06 1478.8L1618.89 1506.7L1601.55 1528.41L1491.48 1440.3L1518.2 1406.95L1518.15 1406.9ZM1575.27 1446.48C1577.92 1443.19 1579.55 1440 1580.13 1436.91C1580.72 1433.81 1580.68 1430.92 1579.94 1428.26C1579.2 1425.61 1578.07 1423.25 1576.65 1421.19C1575.22 1419.13 1573.75 1417.56 1572.37 1416.43C1571.29 1415.54 1569.67 1414.56 1567.56 1413.43C1565.45 1412.3 1562.99 1411.52 1560.19 1411.12C1557.44 1410.68 1554.5 1411.12 1551.4 1412.3C1548.31 1413.53 1545.26 1415.98 1542.22 1419.77L1529.74 1435.34L1562.94 1461.91L1575.27 1446.48Z" fill="#EF7835"/>
<path d="M1747.81 1074.05L1743.19 1106.96L1721.78 1103.96L1726.4 1071.05L1747.81 1074.05Z" fill="#2A2858"/>
<path d="M960.612 1607.44C952.066 1607.44 943.52 1607.29 934.974 1606.95C762.191 1600.27 602.325 1526.69 484.844 1399.73C367.412 1272.82 306.363 1107.75 313.043 934.961C319.722 762.176 393.295 602.308 520.255 484.826C647.166 367.344 812.385 306.344 985.021 313.023C1157.8 319.703 1317.67 393.276 1435.15 520.238C1552.58 647.149 1613.63 812.223 1606.95 985.008C1600.27 1157.79 1526.7 1317.66 1399.74 1435.14C1279.12 1546.78 1124.06 1607.44 960.612 1607.44ZM959.384 348.042C804.92 348.042 658.364 405.359 544.321 510.857C424.384 621.905 354.839 772.981 348.503 936.287C342.167 1099.64 399.827 1255.63 510.874 1375.62C621.921 1495.55 772.996 1565.1 936.3 1571.44C1099.75 1577.62 1255.64 1520.11 1375.63 1409.06C1495.56 1298.02 1565.11 1146.94 1571.44 983.633C1577.78 820.278 1520.12 664.29 1409.07 544.304C1298.03 424.366 1146.95 354.82 983.646 348.484C975.542 348.189 967.438 347.993 959.384 347.993V348.042Z" fill="#2A2858"/>
<path d="M960.466 1920C947.992 1920 935.467 1919.75 922.894 1919.26C393.936 1898.83 -19.7517 1451.84 0.72882 922.877C21.2094 393.913 468.344 -19.3855 997.106 0.702323C1526.06 21.1831 1939.75 468.174 1919.27 997.089C1899.28 1513.48 1472.82 1920 960.466 1920ZM959.533 35.4754C466.084 35.4754 55.4419 426.967 36.1892 924.252C16.4944 1433.62 414.859 1864.11 924.269 1883.8C1433.63 1903.74 1864.12 1505.13 1883.81 995.713C1903.51 486.347 1505.14 55.9071 995.73 36.2121C983.648 35.721 971.517 35.5245 959.533 35.5245V35.4754Z" fill="#2A2858"/>
<path d="M175.869 1106.91L170.515 1074.1L191.831 1070.61L197.184 1103.42L175.869 1106.91Z" fill="#2A2858"/>
<path d="M113.454 921.354L120.527 840.168L145.231 842.329L140.369 897.927L169.837 900.481L174.012 852.299L198.716 854.46L194.541 902.642L245.571 907.062L243.361 932.651L113.454 921.354Z" fill="#2A2858"/>
<path d="M115.017 713.208L132.01 744.395L128.425 759.031L108.484 739.877L115.017 713.208ZM127.983 796.162L149.249 709.77L173.315 715.712L158.188 777.155L185.201 783.785L198.56 729.415L222.625 735.358L209.266 789.728L236.623 796.457L252.339 732.608L276.405 738.551L254.55 827.35L127.934 796.211L127.983 796.162Z" fill="#2A2858"/>
<path d="M337.458 609.525L215.213 662.471L222.236 657.313L295.023 689.876L284.218 713.599L160.844 657.412L161.286 656.429L282.352 605.252L277.735 609.378L203.524 576.127L214.231 552.601L337.753 608.887L337.458 609.525Z" fill="#2A2858"/>
<path d="M244.19 503.487L295.367 430.699L315.651 444.992L279.257 496.709L301.997 512.72L334.216 466.946L354.5 481.238L322.281 527.013L345.316 543.221L383.133 489.44L403.418 503.733L350.816 578.534L244.141 503.536L244.19 503.487Z" fill="#2A2858"/>
<path d="M327.391 392.883L345.317 374.465L421.002 448.087L463.78 404.179L481.56 421.467L420.904 483.794L327.44 392.834L327.391 392.883Z" fill="#2A2858"/>
<path d="M453.663 357.765C448.408 350.496 444.872 342.589 442.957 334.043C441.041 325.546 440.746 316.951 442.073 308.405C443.399 299.81 446.296 291.755 450.717 284.192C455.186 276.628 461.129 270.145 468.643 264.791C476.059 259.487 484.016 255.951 492.611 254.133C501.206 252.316 509.85 252.12 518.494 253.544C527.138 254.968 535.242 257.915 542.756 262.434C550.271 266.952 556.656 272.797 561.911 280.115C567.264 287.58 570.899 295.635 572.765 304.181C574.631 312.727 574.828 321.273 573.305 329.868C571.832 338.414 568.787 346.42 564.317 353.934C559.799 361.4 553.856 367.784 546.44 373.089C538.975 378.491 530.969 382.126 522.423 384.041C513.877 385.957 505.381 386.202 496.933 384.827C488.436 383.452 480.48 380.505 472.965 375.938C465.5 371.419 459.066 365.427 453.713 357.912L453.663 357.765ZM475.225 342.245C478.613 346.96 482.592 350.742 487.208 353.59C491.825 356.488 496.736 358.355 501.992 359.337C507.247 360.27 512.502 360.172 517.708 359.042C522.914 357.912 527.875 355.653 532.59 352.264C537.108 349.023 540.694 345.143 543.346 340.624C545.998 336.106 547.619 331.243 548.257 326.086C548.896 320.929 548.552 315.674 547.275 310.419C545.998 305.163 543.64 300.203 540.251 295.488C536.814 290.675 532.786 286.844 528.12 283.897C523.454 280.95 518.543 278.985 513.435 278.003C508.278 276.972 503.072 277.021 497.915 278.101C492.758 279.231 487.847 281.441 483.23 284.732C478.613 288.072 474.979 291.952 472.278 296.519C469.576 301.087 467.857 305.998 467.121 311.205C466.384 316.46 466.679 321.764 468.005 327.019C469.331 332.324 471.737 337.383 475.175 342.147L475.225 342.245Z" fill="#2A2858"/>
<path d="M731.35 278.642L604.881 236.747L613.574 237.582L646.186 310.37L622.366 320.881L567.751 196.817L568.733 196.375L693.139 238.761H686.951L653.701 164.549L677.374 154.137L732.087 278.347L731.448 278.642H731.35Z" fill="#2A2858"/>
<path d="M870.536 142.153C865.232 140.286 859.878 138.862 854.476 137.929C849.122 136.996 844.26 136.897 839.791 137.585C834.29 138.469 830.164 140.286 827.365 142.988C824.565 145.738 823.534 149.274 824.222 153.744C824.713 156.789 826.334 159.294 829.133 161.307C831.883 163.321 835.321 164.942 839.447 166.219C843.573 167.447 847.747 168.527 852.069 169.411C855.998 170.197 859.977 171.278 864.004 172.604C867.982 173.93 871.666 175.796 875.055 178.203C878.444 180.609 881.341 183.753 883.797 187.731C886.204 191.709 887.923 196.768 888.905 202.956C889.936 209.489 889.249 215.824 886.744 221.964C884.239 228.103 880.015 233.407 874.023 237.926C868.031 242.395 860.271 245.44 850.743 246.963C845.832 247.749 840.773 248.044 835.518 247.896C830.263 247.7 825.057 247.012 819.85 245.735C814.595 244.458 809.487 242.641 804.429 240.234L812.434 218.673C815.823 220.392 819.408 221.816 823.239 222.946C827.07 224.076 830.852 224.812 834.634 225.156C838.416 225.5 841.804 225.402 844.85 224.96C847.895 224.469 850.891 223.535 853.837 222.16C856.784 220.785 859.142 218.87 860.812 216.463C862.531 214.056 863.071 210.962 862.481 207.229C862.089 204.675 860.861 202.465 858.798 200.648C856.784 198.831 854.181 197.259 851.038 195.982C847.895 194.705 844.555 193.674 840.97 192.937C836.746 192.053 832.375 190.972 827.856 189.646C823.338 188.32 819.016 186.552 814.89 184.293C810.764 182.034 807.228 178.939 804.232 175.059C801.285 171.179 799.321 166.121 798.289 159.932C797.111 152.467 797.7 145.738 800.156 139.697C802.611 133.656 806.59 128.597 812.14 124.422C817.689 120.248 824.418 117.35 832.276 115.729C842.639 114.059 851.283 113.912 858.159 115.336C865.035 116.711 871.273 118.725 876.97 121.279L870.487 142.251L870.536 142.153Z" fill="#2A2858"/>
<path d="M904.915 236.357L963.213 100.555H964.638L1023.97 235.865L994.204 235.964L956.288 140.78L974.853 127.912L930.258 236.16L904.915 236.258V236.357ZM944.943 189.059L984.087 188.912L993.222 210.473L937.036 210.67L944.943 189.01V189.059Z" fill="#2A2858"/>
<path d="M1057.42 110.328L1082.91 113.373L1067.39 242.839L1041.85 239.794L1057.42 110.328Z" fill="#2A2858"/>
<path d="M1211.93 281.59L1139.88 169.511L1146.12 175.601L1125.79 252.711L1100.64 245.884L1136.1 115.043L1137.13 115.338L1207.22 226.484L1202.41 222.604L1223.18 143.971L1248.18 150.749L1212.67 281.787L1211.98 281.59H1211.93Z" fill="#2A2858"/>
<path d="M1292.53 168.529L1371.99 206.102L1361.38 228.498L1332.7 214.943L1287.57 310.421L1264.33 299.42L1309.47 203.941L1281.92 190.926L1292.53 168.48V168.529Z" fill="#2A2858"/>
<path d="M1410.26 228.055L1483.98 277.857L1470.08 298.387L1417.67 262.975L1402.1 286.059L1448.52 317.394L1434.62 337.924L1388.25 306.589L1372.49 329.918L1426.96 366.705L1413.06 387.284L1337.27 336.107L1410.26 228.055Z" fill="#2A2858"/>
<path d="M1460.69 361.547L1485.89 383.354L1471.74 399.709L1446.55 377.951L1460.69 361.596V361.547Z" fill="#2A2858"/>
<path d="M1474.35 438.903L1577.53 350.742L1577.63 350.889L1546.54 472.742L1541.29 462.772L1664.52 452.605L1664.76 452.9L1561.57 541.061L1544.87 521.513L1604.01 470.974L1594.92 480.797L1518.6 488.017L1518.35 487.722L1536.57 412.479L1548.75 407.911L1490.41 457.762L1474.3 438.903H1474.35Z" fill="#2A2858"/>
<path d="M1571.84 557.072L1718.89 542.73L1719.57 543.958L1629.6 661.195L1615.16 635.164L1680.28 556.09L1700.47 566.158L1584.12 579.272L1571.79 557.121L1571.84 557.072ZM1632.54 569.351L1651.55 603.583L1637.06 621.952L1609.8 572.838L1632.59 569.301L1632.54 569.351Z" fill="#2A2858"/>
<path d="M1772.23 672.886C1774.93 680.548 1776.35 687.767 1776.5 694.447C1776.65 701.176 1775.66 707.168 1773.45 712.521C1771.24 717.875 1768 722.491 1763.68 726.371C1759.36 730.251 1754 733.346 1747.62 735.556C1742.61 737.324 1737.31 738.306 1731.76 738.601C1726.21 738.896 1720.8 738.012 1715.45 736.047C1710.1 734.082 1705.23 730.792 1700.76 726.077C1696.29 721.411 1692.61 714.928 1689.71 706.676L1683.62 689.29L1644.48 702.993L1635.98 678.73L1759.06 635.559L1772.13 672.837L1772.23 672.886ZM1706.12 726.322L1669.33 773.423L1659.41 745.133L1695.31 697.59L1706.12 726.273V726.322ZM1713.19 698.327C1714.47 702.011 1716.19 704.859 1718.25 706.873C1720.36 708.887 1722.57 710.262 1724.98 710.999C1727.34 711.735 1729.69 712.03 1731.95 711.932C1734.21 711.833 1736.27 711.441 1738.04 710.851C1739.37 710.36 1741.04 709.574 1742.95 708.494C1744.87 707.364 1746.69 705.842 1748.36 703.877C1750.03 701.912 1751.16 699.407 1751.74 696.411C1752.33 693.366 1751.84 689.781 1750.37 685.508L1744.28 668.122L1707.15 681.137L1713.19 698.376V698.327Z" fill="#2A2858"/>
<path d="M1799.77 766.449L1805.17 791.547L1677.67 819.051L1672.27 793.953L1799.77 766.449Z" fill="#2A2858"/>
<path d="M1814.4 840.168L1822.41 928.771L1797.7 930.981L1792.01 867.967L1764.31 870.472L1769.37 926.217L1744.66 928.476L1739.6 872.731L1711.56 875.285L1717.45 940.755L1692.75 943.014L1684.55 851.956L1814.45 840.217L1814.4 840.168Z" fill="#2A2858"/>
<path d="M1444.8 889.138L1387.84 928.395L1376.73 1016.07L1354.5 1099.81L1317 1183.56L1268.38 1259.46L1207.26 1324.89L1135.02 1383.77L1050.29 1433.49L959.996 1475.37L865.536 1432.19L778.022 1378.54L704.399 1317.03L643.278 1248.99L594.659 1173.09L559.932 1090.65L539.095 1010.83L530.76 928.395L475.196 889.138V558.075L587.714 521.435L647.446 505.733L707.177 493.956L825.252 476.945L946.105 470.402L1073.9 475.636L1197.53 491.339L1323.94 520.127L1444.8 558.075V889.138Z" fill="#292758"/>
<path d="M1415.63 870.816L1358.68 849.879L1357.29 929.701L1354.51 970.266L1348.95 1008.21L1340.62 1048.78L1328.12 1089.34L1310.06 1132.53L1290.61 1174.4L1268.39 1211.04L1241.99 1246.37L1182.26 1310.49L1116.97 1362.83L1080.86 1386.38L1041.96 1407.32L960.003 1445.65L915.551 1426.95L876.656 1407.32L854.43 1395.54L833.593 1382.46L794.698 1357.6L758.581 1330.12L725.243 1301.33L694.682 1268.62L680.791 1252.91L666.9 1235.9L654.398 1217.58L643.285 1199.26L621.059 1162.62L604.39 1124.67L589.11 1085.42L568.273 1008.21L561.328 929.701L558.549 849.879L502.985 869.507V576.392L630.783 537.136L684.958 525.359L739.134 514.786L840.539 501.805L944.722 497.879L1058.63 500.496L1164.2 512.273L1276.72 534.519L1330.9 548.913L1385.07 567.232L1414.24 577.701L1415.63 715.098V870.816Z" fill="#EBEBEB"/>
<path d="M1398.96 586.861V848.571L1344.79 828.942L1290.61 813.24L1178.1 788.377L1069.74 773.983L958.616 770.058L844.708 773.983L734.969 788.377L625.229 813.24L571.053 830.251L518.267 848.571V588.169L622.45 555.455L733.579 530.593L844.708 516.199L961.394 512.273L1072.52 516.199L1180.87 530.593L1292 555.455L1398.96 586.861Z" fill="#292758"/>
<path d="M896.104 1526.4L879.435 1512.01L894.715 1505.46L908.606 1498.92L939.167 1487.14L921.108 1483.22L903.05 1480.6L865.544 1475.37L857.209 1476.67L851.653 1479.29L837.762 1484.53L822.482 1488.45L807.201 1489.76L791.921 1488.45L778.03 1485.83L755.804 1476.67L772.474 1470.13L790.532 1466.21H829.427L790.532 1453.12L771.084 1454.43L751.637 1455.74L730.8 1454.43L711.353 1447.89L694.683 1440.04L680.792 1429.57L701.629 1426.95H722.465L761.361 1440.04L728.022 1420.41L719.687 1415.17L709.963 1412.56L687.738 1411.25L676.625 1409.94L665.512 1407.32L646.064 1396.85L630.784 1385.08L618.282 1373.3L640.508 1374.61L661.345 1379.84L694.683 1396.85L665.512 1371.99L657.177 1366.76L647.453 1362.83L626.617 1357.6L616.893 1354.98L608.558 1351.05L600.224 1345.82L593.278 1339.28L580.776 1327.5L573.831 1315.72L591.889 1319.65L609.947 1326.19L625.228 1335.35L640.508 1347.13L619.671 1322.27L612.726 1315.72L605.78 1311.8L586.333 1305.25L569.663 1296.09L562.718 1290.86L557.161 1285.63L551.605 1277.77L546.048 1271.23L539.103 1258.15L557.161 1263.38L572.441 1271.23L598.835 1294.79L580.776 1267.31L575.22 1259.46L566.885 1255.53L550.216 1247.68L537.714 1237.21L527.99 1225.43L521.044 1212.35L516.877 1199.26L532.157 1207.11L546.048 1217.58L558.55 1229.36L568.274 1242.44L555.772 1214.96L544.659 1201.88L530.768 1192.72L519.655 1180.94L511.321 1167.86L505.764 1154.77L504.375 1140.38L516.877 1149.54L523.823 1156.08L527.99 1161.31L546.048 1187.49L537.714 1160.01L530.768 1146.92L525.212 1132.53V1107.66L526.601 1094.58L530.768 1082.8L540.492 1106.35L543.27 1118.13L544.659 1131.22L543.27 1156.08L544.659 1169.17L548.827 1180.94L551.605 1156.08L557.161 1144.3L565.496 1133.83L568.274 1145.61V1157.39L564.107 1182.25L557.161 1201.88L562.718 1217.58L565.496 1225.43L569.663 1233.28V1207.11V1200.57L572.441 1192.72L580.776 1180.94L584.943 1192.72L587.722 1205.8V1220.2L584.943 1233.28L582.165 1239.83V1246.37V1254.22L584.943 1260.76L600.224 1284.32L596.056 1269.92L593.278 1254.22L594.667 1238.52L600.224 1224.12L607.169 1234.59L612.726 1247.68L614.115 1263.38V1277.77L612.726 1292.17L614.115 1300.02L615.504 1306.56L636.341 1331.43L629.395 1317.03L625.228 1300.02V1284.32L626.617 1277.77L629.395 1269.92L637.73 1280.39L643.286 1292.17L647.453 1306.56V1320.96L648.843 1334.04L650.232 1341.89L651.621 1347.13L657.177 1353.67L661.345 1360.21L675.236 1370.68L666.901 1356.29L662.734 1348.44L661.345 1340.59L659.955 1324.88L662.734 1309.18L672.457 1319.65L680.792 1332.73L684.959 1344.51L689.127 1357.6L690.516 1373.3L691.905 1381.15L696.072 1387.69L708.574 1398.16L722.465 1407.32L711.353 1394.24L703.018 1379.84L700.24 1364.14L701.629 1348.44L712.742 1357.6L721.076 1368.06L729.411 1381.15L733.578 1394.24L739.135 1409.94L741.913 1417.79L748.859 1423.02L776.641 1438.73L764.139 1426.95L754.415 1413.86L747.469 1399.47L746.08 1382.46L771.084 1400.78L780.808 1412.56L787.754 1424.33L796.088 1437.42L805.812 1449.2L822.482 1455.74L840.54 1460.97L823.871 1451.81L809.979 1440.04L801.645 1425.64L798.867 1419.1L796.088 1411.25L815.536 1419.1L833.594 1429.57L848.875 1443.96L859.988 1459.66L869.711 1466.21L875.268 1468.82L882.213 1470.13L908.606 1474.06L961.393 1483.22L1050.3 1468.82L1060.02 1462.28L1066.97 1454.43L1082.25 1436.11L1091.97 1428.26L1101.69 1421.72L1126.7 1411.25L1125.31 1420.41L1121.14 1428.26L1111.42 1442.65L1097.53 1451.81L1082.25 1460.97L1104.47 1454.43L1115.58 1450.5L1122.53 1443.96L1133.64 1426.95L1151.7 1400.78L1164.2 1391.62L1178.09 1383.77L1175.32 1400.78L1169.76 1415.17L1157.26 1426.95L1144.76 1438.73L1169.76 1426.95L1180.87 1419.1L1186.43 1400.78L1198.93 1371.99L1221.16 1348.44L1223.93 1365.45L1221.16 1379.84L1214.21 1392.93L1203.1 1406.01L1232.27 1383.77L1233.66 1371.99V1360.21L1239.21 1340.59L1247.55 1323.57L1260.05 1309.18L1262.83 1334.04L1257.27 1353.67L1247.55 1371.99L1262.83 1360.21L1272.55 1344.51L1275.33 1324.88L1276.72 1303.95L1283.67 1285.63L1294.78 1269.92L1298.95 1285.63V1300.02L1294.78 1315.72L1289.22 1331.43L1300.34 1318.34L1310.06 1302.64V1284.32L1307.28 1269.92L1310.06 1252.91L1315.62 1238.52L1322.56 1225.43L1329.51 1247.68L1325.34 1284.32L1335.06 1266L1340.62 1255.53V1247.68L1339.23 1238.52L1337.84 1230.67L1336.45 1224.12L1335.06 1208.42L1337.84 1192.72L1343.4 1179.63L1350.34 1190.1L1353.12 1200.57L1354.51 1213.66V1233.28L1362.85 1211.04L1364.23 1199.26L1360.07 1183.56L1355.9 1174.4L1354.51 1161.31L1355.9 1148.23L1358.68 1135.14L1367.01 1142.99L1371.18 1152.15L1375.35 1179.63L1379.68 1163.93V1152.15V1145.61L1378.13 1137.76L1376.74 1125.98L1378.13 1119.44L1383.68 1102.43L1392.02 1084.11L1398.96 1101.12L1400.35 1119.44L1396.18 1136.45L1389.24 1152.15L1385.07 1162.62L1379.68 1184.87L1396.18 1158.7L1408.69 1148.23L1418.41 1140.38L1417.02 1156.08L1411.46 1170.47L1392.02 1191.41L1376.74 1203.19L1368.4 1213.66L1354.51 1242.44L1376.74 1216.27L1392.02 1207.11L1407.3 1200.57L1394.07 1226.74L1382.29 1239.83L1371.18 1247.68L1354.51 1255.53L1346.18 1262.07L1340.62 1269.92L1325.34 1293.48L1351.73 1272.54L1367.01 1263.38L1385.07 1258.15L1367.01 1285.63L1351.73 1297.4L1335.06 1305.25L1315.62 1313.11L1308.67 1317.03L1304.5 1322.27L1292 1335.35L1282.28 1348.44L1312.84 1326.19L1330.9 1319.65L1350.34 1315.72L1339.23 1331.43L1325.34 1344.51L1318.39 1349.75L1308.67 1353.67L1289.22 1358.91L1275.33 1362.83L1265.61 1366.76L1254.5 1374.61L1247.55 1379.84L1240.6 1386.38L1228.1 1398.16L1261.44 1379.84L1282.28 1374.61H1303.11L1289.22 1389L1271.16 1400.78L1253.11 1408.63L1235.05 1411.25L1211.43 1412.56L1196.15 1420.41L1180.87 1428.26L1162.81 1440.04L1183.65 1432.18L1203.1 1428.26L1223.93 1426.95L1243.38 1429.57L1216.99 1445.27L1203.1 1451.81L1187.82 1455.74H1171.15L1157.26 1454.43L1144.76 1453.12H1135.03L1115.58 1458.35L1094.75 1466.21H1112.81H1132.25L1148.92 1470.13L1166.98 1476.67L1153.09 1481.91L1140.59 1487.14L1126.7 1488.45H1114.19L1100.3 1487.14L1086.41 1484.53L1073.91 1479.29L1060.02 1475.37L1021.12 1480.6L985.008 1487.14L1015.57 1498.92L1044.74 1513.31L1025.29 1525.09L1011.4 1514.62L996.12 1505.46L961.393 1492.38L925.276 1506.77L909.996 1515.93L896.104 1526.4Z" fill="#292758"/>
<path d="M1340.61 842.026L1337.83 940.167L1332.28 993.817L1319.77 1044.85L1305.88 1090.65L1287.82 1133.83L1266.99 1175.71L1240.59 1213.65L1211.42 1250.29L1196.14 1267.3L1180.86 1283.01L1147.52 1313.1L1112.8 1340.58L1075.29 1365.45L1036.39 1387.69L997.499 1407.32L976.663 1416.48L957.215 1423.02L907.207 1402.09L859.977 1378.53L816.915 1351.05L778.02 1322.26L741.903 1290.86L707.175 1255.53L675.225 1216.27L648.832 1177.01L629.385 1139.07L611.326 1098.5L597.435 1056.63L586.322 1013.45L579.377 970.263L575.209 928.39L573.82 840.717L618.272 827.631L640.498 822.397L662.723 817.163L708.564 806.695L754.405 798.843L779.409 794.918L804.413 790.992L837.751 787.066L780.798 817.163L758.572 832.866L736.346 851.185L701.619 890.442L675.225 932.316L658.556 972.881L648.832 1014.75L644.665 1056.63L646.054 1098.5L655.778 1144.3L675.225 1190.1L703.008 1231.97L737.735 1271.23L782.187 1305.25L834.973 1334.04L893.316 1351.05L955.826 1356.29L983.608 1354.98L1011.39 1352.36L1037.78 1347.13L1064.18 1339.27L1116.96 1315.72L1162.8 1283.01L1186.42 1262.07L1207.26 1238.52L1225.31 1213.65L1240.59 1186.17L1251.71 1161.31L1260.04 1133.83L1265.6 1106.35L1269.77 1077.56L1268.38 1034.38L1261.43 989.892L1247.54 949.327L1226.7 910.07L1198.92 872.122L1165.58 839.408L1123.91 810.62L1076.68 787.066L1103.07 789.684L1151.69 796.226L1200.31 805.386L1223.92 809.312L1247.54 815.855L1294.77 827.631L1340.61 842.026Z" fill="#F47231"/>
<g filter="url(#filter0_d_0_1)">
<path d="M737.871 1046.04L731.191 1017.28L729.521 1038.05L721.17 1057.22L706.139 1092.37L701.128 1109.95L697.788 1129.12V1149.89L689.124 1186.17L680.789 1167.85L668.287 1133.83L661.342 1108.35L658.563 1090.77L647.451 1028.46L644.672 1063.17L646.061 1097.19L648.84 1116.82L653.007 1135.14L655.785 1145.61L661.342 1158.69L672.455 1184.87L675.233 1190.1L686.346 1207.11L694.68 1220.2L701.626 1230.66L711.35 1242.44L725.241 1258.14L737.743 1271.23L761.358 1289.55L780.805 1305.25L805.809 1318.34L833.592 1334.04L864.152 1343.2L893.323 1351.05L925.273 1353.67L955.833 1356.29L983.616 1354.98L1012.79 1352.36L1041.84 1346.41L1064.18 1339.27L1072.52 1335.35L1103.08 1322.26L1116.97 1315.72L1133.64 1303.94L1161.42 1284.32L1185.04 1263.38L1207.26 1238.52L1225.32 1213.65L1240.6 1186.17L1254.49 1154.77L1262.83 1124.33L1268.38 1091.96L1269.77 1074.95L1268.38 1050.83L1260.05 1082.78L1254.49 1111.54L1248.94 1135.14L1240.6 1157.39L1230.88 1180.94L1218.38 1203.19L1204.48 1222.81L1190.59 1239.82L1178.09 1252.91L1161.42 1269.92L1141.97 1283.01L1126.69 1294.78L1091.94 1313.1L1054.46 1327.5L1056.87 1304.87L1058.54 1280.9L1065.22 1258.53L1073.57 1236.17L1080.25 1245.75L1085.26 1199.42L1093.61 1209L1095.28 1199.42L1093.61 1186.64L1086.93 1164.27L1081.92 1141.9L1083.59 1130.72L1091.94 1121.13L1105.3 1125.92L1111.98 1127.52L1120.33 1129.12H1130.36L1140.38 1124.33L1148.73 1119.53L1153.74 1111.54L1160.42 1105.15L1168.77 1101.96L1173.78 1090.77L1175.45 1082.78L1172.11 1073.2L1162.09 1063.61L1167.1 1054.02L1168.77 1042.84L1165.43 1026.86L1167.1 1012.48L1170.44 1004.5L1177.12 994.909L1187.14 983.725L1192.15 970.943L1193.82 956.563L1202.17 946.977L1208.85 935.793L1220.54 911.827L1227.22 886.263L1232.23 862.297V838.331L1233.9 817.56L1228.89 795.192L1225.55 788.801L1217.2 782.41L1207.18 785.606L1195.49 791.997L1177.12 806.376L1158.75 820.756L1140.38 836.733L1118.66 854.308L1098.62 875.079L1081.92 894.252L1065.22 918.218L1030.15 919.815L1016.79 897.447L1000.08 875.079L981.713 854.308L973.362 844.722L963.341 836.733L944.969 817.56L921.587 798.388L896.535 784.008L883.174 779.215L866.473 780.813L861.462 784.008L854.782 790.399L848.101 806.376L843.091 823.951L841.42 841.526V857.504L843.091 875.079L849.771 908.631L856.452 927.804L859.792 935.793L864.802 942.184L873.153 958.161L876.493 967.747L879.834 975.736L881.504 985.322L888.184 991.713L898.205 999.702L904.886 1004.5L914.907 1017.28L928.268 1030.06L909.896 1063.61L926.598 1050.83L921.587 1070L914.907 1087.58L906.556 1098.76L896.535 1108.35L884.844 1122.73L873.153 1129.12L853.111 1140.3L866.473 1095.57L871.483 1076.39L873.153 1052.43L871.483 1041.24L868.143 1028.46L859.792 1007.69L848.101 988.518L836.41 970.943L839.75 990.116L814.698 962.954L797.997 951.77L779.625 943.781L744.552 937.39H727.85L709.479 942.184L726.18 948.575L737.871 959.759L747.892 974.138L752.903 993.311L749.562 1020.47L744.552 1034.85L737.871 1046.04Z" fill="#292758" stroke="white" stroke-width="2.3486"/>
<path d="M1065.23 1173.86L1076.92 1183.44V1167.47L1073.58 1162.67L1070.24 1153.09L1068.57 1138.71L1071.91 1122.73L1053.53 1125.93L1040.17 1138.71L1031.82 1154.68V1172.26L1013.45 1153.09L1000.09 1132.32L998.42 1156.28L1008.44 1175.46L1028.48 1217L1026.81 1239.36L1021.8 1252.15L1011.78 1269.72L996.749 1280.91L1011.78 1274.51L1026.81 1261.73L1038.5 1247.35L1046.85 1224.99L1045.18 1258.54L1058.54 1234.57L1061.89 1223.39V1205.81L1071.91 1217L1065.23 1173.86Z" fill="white"/>
<path d="M1065.23 1089.18L1060.21 1095.57L1071.91 1093.97L1078.59 1097.17L1088.61 1100.36L1096.96 1105.16L1117 1108.35H1138.71L1135.37 1111.55L1127.02 1114.74H1115.33L1101.97 1111.55L1070.24 1103.56L1035.16 1101.96L1020.13 1105.16L1005.1 1109.95L1010.11 1101.96L1020.13 1097.17L1008.44 1095.57L996.749 1097.17L986.729 1098.76L980.048 1101.96H975.038L978.378 1097.17L985.058 1090.78L1000.09 1082.79L976.708 1084.38L956.666 1093.97L958.336 1085.98L965.017 1079.59L991.739 1062.02H980.048L1003.43 1050.83L1035.16 1063.61H1058.54L1080.26 1073.2H1045.18L1028.48 1074.8L1015.12 1079.59H1078.59V1084.38L1053.53 1085.98L1033.49 1092.37L1065.23 1089.18Z" fill="white"/>
<path d="M1158.75 1089.18L1152.07 1097.17H1153.74H1158.75L1162.09 1093.97V1089.18H1158.75Z" fill="white"/>
<path d="M1150.4 1074.8L1148.73 1079.59H1163.76L1165.43 1077.99L1163.76 1076.4L1162.09 1074.8H1150.4Z" fill="white"/>
<path d="M1105.31 1076.4H1132.03L1138.71 1070.01L1132.03 1066.81L1123.68 1058.82L1115.33 1046.04L1111.99 1031.66L1113.66 1017.28L1128.69 1031.66L1133.7 1042.84L1138.71 1050.83L1148.73 1060.42L1158.75 1070.01H1148.73H1143.72L1137.6 1073.2L1135.37 1077.99V1084.38L1140.38 1089.18L1148.73 1095.57L1123.68 1101.96L1108.65 1100.36L1096.96 1095.57L1093.62 1089.18L1115.33 1092.37L1118.67 1089.18L1095.29 1085.98L1098.63 1079.59L1118.67 1085.98L1105.31 1076.4Z" fill="white"/>
<path d="M949.985 841.529L951.655 838.334L991.739 883.07L1025.14 932.6L1030.15 946.98L1028.48 958.164L991.739 897.45L949.985 841.529Z" fill="white"/>
<path d="M1036.83 931.002L1035.16 924.611L1050.19 926.209L1058.54 931.002L1063.56 935.796L1056.87 926.209H1066.9L1076.92 927.807L1095.29 935.796L1096.96 942.186L1083.6 935.796L1070.24 934.198L1073.58 951.773L1056.87 938.991L1036.83 931.002Z" fill="white"/>
<path d="M1198.84 799.988L1180.47 814.368L1132.03 894.255L1113.66 950.175L1105.31 951.773L1128.69 966.152L1135.37 977.337L1140.38 990.118L1153.74 996.509L1152.07 990.118L1148.73 983.728L1142.05 972.543L1135.37 962.957L1132.03 958.164L1125.35 954.968L1123.68 948.577L1125.35 942.186L1128.69 929.405L1137.04 903.841L1148.73 876.679L1162.09 851.116L1178.8 823.954L1198.84 799.988Z" fill="white"/>
<path d="M1203.85 814.368L1198.84 815.966L1182.14 835.138L1168.77 859.104L1157.08 883.07L1152.07 895.852L1150.4 902.243V907.036L1158.75 902.243L1152.07 908.634L1148.73 911.83L1145.39 916.623L1140.38 932.6L1138.71 948.577L1142.05 950.175L1157.08 943.784L1175.46 926.209L1155.41 932.6L1182.14 894.255L1162.09 903.841L1190.49 865.495L1172.11 873.484L1203.85 814.368Z" fill="white"/>
<path d="M789.647 1063.61L777.956 1017.28L771.275 1039.65L757.914 1057.22L764.595 1033.26L767.935 1022.07L769.605 1004.5V985.326L764.595 974.142L757.914 959.762L749.563 948.578L766.265 951.773L782.966 956.567L808.019 972.544L819.71 985.326L829.73 1001.3L836.411 1018.88L843.092 1036.45L848.102 1014.08L854.783 1028.46L856.453 1046.04V1062.02L853.113 1077.99L833.071 1108.35L838.081 1093.97L841.421 1085.98L843.092 1076.4L846.432 1052.43V1042.84L843.092 1036.45L836.411 1054.03L833.071 1034.86L828.06 1025.27L826.39 1020.48L821.38 1018.88V1055.63L816.369 1070.01L813.029 1077.99L809.689 1082.79L806.348 1085.98L801.338 1026.87L797.998 1044.44L794.657 1055.63L789.647 1063.61Z" fill="white"/>
<ellipse cx="1065.22" cy="1022.07" rx="6.68058" ry="6.39093" fill="#D9D9D9"/>
<path d="M1145.73 1021.54C1145.38 1025.27 1143.71 1028.47 1140.72 1026.87C1137.03 1028.47 1137.03 1025.07 1137.03 1021.54C1137.03 1018.01 1138.7 1018.88 1140.72 1016.75C1143.71 1015.69 1145.38 1015.69 1145.73 1021.54Z" fill="#D9D9D9"/>
<path d="M998.416 1242.56L1003.43 1229.78V1252.15L996.746 1280.91L1011.78 1269.72L1021.8 1252.15L1026.81 1239.37L1028.48 1217L998.416 1156.28L981.715 1111.55L970.023 1124.33L966.683 1141.9L970.023 1161.08L975.034 1175.46L954.992 1157.88L956.662 1172.26L958.332 1186.64L966.683 1197.82L978.374 1217L980.044 1207.41V1199.42L986.725 1209.01L991.735 1217L998.416 1242.56Z" fill="#F47231"/>
<path d="M988.395 1335.23H975.033L970.023 1308.07L971.693 1285.7L976.704 1274.52L988.395 1265.82L983.384 1287.3V1300.08L985.054 1319.26L988.395 1335.23Z" fill="#F47231"/>
<path d="M1048.52 1269.72L1035.16 1280.91L1033.48 1290.49V1303.28V1327.24L1043.51 1325.64L1045.18 1312.86L1046.85 1296.88L1048.52 1284.1V1269.72Z" fill="#F47231"/>
<path d="M911.57 1266.53H904.89V1253.74L907.366 1239.36L911.57 1224.98L919.921 1215.4L918.251 1229.78V1245.75L921.592 1261.73L924.932 1274.51L933.283 1301.68L938.293 1316.06V1328.84L921.592 1300.08L913.241 1280.91L911.57 1274.51V1266.53Z" fill="#F47231"/>
<path d="M861.46 1276.11L874.821 1279.31L866.47 1271.32L854.779 1266.53L831.397 1264.93L838.078 1258.54L849.769 1255.34H868.14L883.171 1263.33L894.863 1276.11L901.543 1288.9L906.554 1303.28V1319.25V1332.03L898.203 1330.44L894.863 1312.86L884.842 1298.48L881.501 1292.09L874.821 1287.3L861.46 1276.11Z" fill="#F47231"/>
<path d="M843.085 1185.04L799.661 1256.94L797.991 1232.97L804.672 1212.2L814.693 1191.43L828.054 1172.26L843.085 1157.88L859.787 1146.7L878.158 1137.11L894.86 1125.92L904.881 1109.95L914.901 1101.96L931.603 1071.6V1097.17L929.933 1109.95L924.922 1122.73L921.582 1116.34L913.231 1125.92L904.881 1138.71L896.53 1175.45L893.19 1145.1L858.116 1162.67L879.828 1164.27L833.064 1185.04H843.085Z" fill="#F47231"/>
<path d="M757.92 1057.22V1030.06L734.538 1070.01L726.187 1092.37L724.517 1117.94H727.857L729.528 1114.74L732.868 1109.95L739.548 1098.77L747.899 1089.18L757.92 1082.79L746.229 1105.16L737.878 1127.52L734.538 1153.09L739.548 1177.05L761.26 1130.72L754.58 1173.86L756.25 1196.23L761.26 1207.41L767.941 1217L771.281 1183.45L776.292 1169.07L781.302 1159.48L776.292 1191.43L779.632 1209.01L786.312 1221.79L801.344 1181.85L829.736 1148.3L836.417 1132.32L844.768 1114.74L848.108 1098.77L853.118 1078L833.077 1108.35L841.427 1085.98L843.097 1079.59L844.768 1068.41L846.438 1050.83V1042.85L843.097 1034.86L836.417 1054.03L833.077 1034.86L828.066 1025.27L826.396 1020.48L821.386 1018.88V1055.63L816.375 1070.01L813.035 1078L809.695 1082.79L806.354 1085.98L808.024 1068.41V1060.42V1052.43L806.354 1038.05L804.684 1031.66L801.344 1025.27L798.004 1044.44L794.663 1055.63L789.653 1063.62L786.312 1038.05L782.972 1025.27L777.962 1015.68L771.281 1039.65L757.92 1057.22Z" fill="#F47231"/>
<path d="M1138.7 1070.01L1132.02 1076.4H1105.3L1100.29 1074.8L1108.64 1063.62L1091.94 1031.66L1068.56 1009.29L1040.16 1012.49L1030.14 1020.48L1006.76 1018.88L1016.78 1023.67L995.071 1038.05L1031.81 1028.47L1055.2 1044.44L1080.25 1041.25L1091.94 1055.63L1080.25 1073.2L1058.54 1063.62H1035.15L1003.42 1050.83L980.039 1062.02H991.73L978.369 1068.41L965.008 1079.59L980.039 1052.43L951.647 1063.62L956.657 1044.44L968.348 1026.87L948.307 1034.86L965.008 1009.29L954.987 1012.49L944.966 1010.89L934.946 1006.1L941.626 1002.9L923.255 996.511L906.553 988.522L894.862 978.935L886.511 962.958L919.914 975.74L878.161 938.992L854.779 879.876L853.108 822.358L861.459 796.794L871.48 787.208H883.171L914.904 806.38L951.647 838.335L949.977 841.53L991.73 897.451L1010.1 927.808L1028.47 958.165L1030.14 946.981L1025.13 932.601L1046.85 945.383L1036.82 931.003L1055.2 938.243L1073.57 951.774L1070.23 934.199L1083.59 935.797L1096.95 942.188L1095.28 935.797L1105.3 942.188L1113.65 903.842L1135.36 865.496L1180.46 814.369L1132.02 894.256L1113.65 950.176L1105.3 951.774L1116.99 958.165L1128.68 966.154L1135.36 977.338L1140.37 990.12L1153.73 996.511L1157.07 1001.3V1009.29L1153.73 1014.09L1145.38 1009.29L1138.7 1007.69L1132.02 1014.09L1140.37 990.12L1133.69 994.913L1128.68 1002.9L1127.01 1012.49L1128.68 1031.66L1113.65 1017.28L1111.98 1031.66L1115.32 1046.04L1123.67 1058.82L1132.02 1066.81L1138.7 1070.01Z" fill="#F47231"/>
<path d="M1143.71 1041.25L1153.73 1026.87L1157.07 1038.05V1046.04L1152.06 1050.83L1143.71 1041.25Z" fill="#F47231"/>
<path d="M1147.05 962.958L1162.09 986.924L1173.78 977.338L1177.12 970.947L1178.79 962.958L1162.09 966.154V962.958L1187.14 938.992L1202.17 910.233L1210.52 887.865L1213.86 871.887L1217.2 859.105L1218.87 843.128V822.358V807.978L1213.86 799.989L1198.83 815.967L1203.84 814.369L1172.11 873.485L1190.48 865.496L1162.09 903.842L1182.13 894.256L1155.4 932.601L1175.45 926.21L1147.05 962.958Z" fill="#F47231"/>
<path d="M919.919 954.968L916.578 961.359L881.505 924.611L871.485 902.243L864.804 879.875L863.134 836.736L864.804 814.367L869.814 804.781L878.165 798.39L891.526 801.586L904.887 809.574L924.929 827.149L961.672 867.093L988.395 911.829L1000.09 937.393L1006.77 962.957L983.384 975.738L965.013 996.509L968.353 977.336L944.971 958.163L948.311 972.543V988.52L919.919 954.968Z" fill="#292758"/>
<path d="M981.714 945.384L966.683 940.591L976.704 951.775L983.384 962.959L966.683 958.166L949.982 950.177L936.62 938.993L926.6 924.614L953.322 932.602L931.61 915.027L923.259 905.441L916.579 892.659L943.301 903.843L923.259 883.073L914.909 871.889L909.898 860.704L933.28 876.682L901.547 823.957L916.579 833.543L926.6 844.727L948.311 868.693L965.013 895.855L976.704 924.614L963.343 918.223L975.034 931.005L981.714 945.384Z" fill="white"/>
</g>
<path d="M1272.07 610.116L1269.34 609.774L1228.32 604.647L1224.81 604.209V651.554L1227.59 651.862L1270.96 656.681V691.017L1228.61 681.606L1224.81 680.763V733.552L1227.55 733.894L1268.57 739.021L1272.07 739.459V719.305L1311.98 728.173V783.493L1169.53 758.933V723.663H1184.91V599.496H1169.53V565.177L1311.98 584.825V639.744L1272.07 630.876V610.116Z" fill="white" stroke="#F47231" stroke-width="6.24"/>
<path d="M1023.15 539.775L1056.08 567.811V721.649L1025.96 751.856L891.119 755.201V727.83L906.737 720.49L908.53 719.647V582.506L904.896 583.113L891.119 585.415V531.325L1023.15 539.775Z" fill="white" stroke="#F47231" stroke-width="6.24"/>
<path d="M954.744 720.578V569.281H1001.17L1012.78 580.919V708.94L1001.17 720.578H954.744Z" fill="#292758" stroke="#F47231" stroke-width="6.24"/>
<path d="M763.864 584.01V645.879L754.43 655.339L752.232 657.543L754.43 659.746L763.864 669.205V736.637L737.032 763.541L617.519 783.512V745.757L630.43 743.599L633.035 743.164V612.368L629.401 612.975L617.757 614.921L619.938 579.916L735.19 564.843L763.864 584.01Z" fill="white" stroke="#F47231" stroke-width="6.24"/>
<path d="M671.296 649.765V592.717L717.848 587.531L723.02 597.903V634.207L717.848 644.579L671.296 649.765Z" fill="#292758" stroke="#F47231" stroke-width="6.24"/>
<path d="M671.296 737.929V680.881L717.848 675.695L723.02 686.067V722.371L717.848 732.743L671.296 737.929Z" fill="#292758" stroke="#F47231" stroke-width="6.24"/>
<defs>
<filter id="filter0_d_0_1" x="624.296" y="778.021" width="665.854" height="617.841" filterUnits="userSpaceOnUse" color-interpolation-filters="sRGB">
<feFlood flood-opacity="0" result="BackgroundImageFix"/>
<feColorMatrix in="SourceAlpha" type="matrix" values="0 0 0 0 0 0 0 0 0 0 0 0 0 0 0 0 0 0 127 0" result="hardAlpha"/>
<feOffset dy="19.2"/>
<feGaussianBlur stdDeviation="9.6"/>
<feComposite in2="hardAlpha" operator="out"/>
<feColorMatrix type="matrix" values="0 0 0 0 0 0 0 0 0 0 0 0 0 0 0 0 0 0 0.25 0"/>
<feBlend mode="normal" in2="BackgroundImageFix" result="effect1_dropShadow_0_1"/>
<feBlend mode="normal" in="SourceGraphic" in2="effect1_dropShadow_0_1" result="shape"/>
</filter>
</defs>
</svg>
